<?xml version="1.0" encoding="UTF-8"?>
<svg xmlns="http://www.w3.org/2000/svg" xmlns:xlink="http://www.w3.org/1999/xlink" width="120px" height="120px" viewBox="0 0 120 120" version="1.1">
<g id="surface1">
<path style=" stroke:none;fill-rule:nonzero;fill:rgb(0%,0%,0%);fill-opacity:1;" d="M 77.804688 19.289062 C 75.1875 19.496094 72.679688 19.929688 71.164062 20.417969 C 69.195312 21.058594 67.367188 22.21875 65.960938 23.714844 C 64.957031 24.777344 64.289062 25.730469 62.683594 28.40625 C 61.949219 29.636719 60.550781 31.847656 59.585938 33.324219 C 58.621094 34.808594 57.835938 36.058594 57.835938 36.109375 C 57.835938 36.34375 58.082031 36.097656 58.886719 35.035156 C 60.078125 33.492188 61.113281 32.015625 63.136719 29.007812 C 65.46875 25.523438 66.375 24.519531 68.332031 23.242188 C 70.847656 21.601562 74.035156 20.5 78.246094 19.820312 C 80.359375 19.484375 80.566406 19.445312 80.585938 19.328125 C 80.617188 19.199219 79.152344 19.179688 77.804688 19.289062 Z M 77.410156 19.730469 C 72.984375 20.527344 69.71875 21.816406 67.230469 23.753906 C 65.65625 24.984375 64.828125 26.007812 62.332031 29.773438 C 61.535156 30.984375 60.855469 31.96875 60.828125 31.96875 C 60.796875 31.96875 60.855469 31.820312 60.972656 31.644531 C 61.082031 31.476562 61.847656 30.214844 62.65625 28.867188 C 64.503906 25.808594 65.222656 24.796875 66.34375 23.65625 C 68.765625 21.207031 71.417969 20.164062 76.574219 19.621094 C 78.550781 19.417969 78.914062 19.464844 77.410156 19.730469 Z M 77.410156 19.730469 "/>
<path style=" stroke:none;fill-rule:nonzero;fill:rgb(0%,0%,0%);fill-opacity:1;" d="M 69.601562 23.605469 C 66.71875 25.296875 64.464844 28.40625 60.246094 36.53125 L 59.390625 38.195312 L 59.597656 38.546875 C 59.703125 38.746094 59.84375 38.890625 59.902344 38.882812 C 59.949219 38.863281 59.96875 38.988281 59.941406 39.175781 L 59.890625 39.492188 L 60.097656 39.246094 C 60.214844 39.109375 61.050781 37.867188 61.96875 36.492188 C 63.972656 33.433594 64.820312 32.488281 64.820312 33.285156 C 64.820312 33.640625 64.308594 35.28125 63.589844 37.230469 C 62.09375 41.273438 60.785156 45.03125 60.785156 45.253906 C 60.785156 45.304688 60.828125 45.34375 60.886719 45.34375 C 61.023438 45.34375 61.199219 44.960938 62.804688 41.214844 C 63.601562 39.34375 65.144531 35.714844 66.246094 33.148438 C 67.347656 30.582031 68.429688 28.023438 68.644531 27.460938 C 69.195312 26.09375 69.875 24.746094 70.335938 24.128906 C 70.683594 23.664062 70.800781 23.410156 70.683594 23.410156 C 70.652344 23.410156 70.464844 23.5 70.257812 23.617188 C 69.925781 23.804688 69.90625 23.804688 70.121094 23.636719 C 70.25 23.527344 70.335938 23.390625 70.316406 23.320312 C 70.289062 23.253906 70.023438 23.359375 69.601562 23.605469 Z M 69.886719 24.375 C 69.519531 24.886719 68.929688 26.113281 68.410156 27.441406 C 68.234375 27.90625 67.542969 29.539062 66.886719 31.082031 C 65.722656 33.777344 65.144531 35.132812 63.5 39 C 63.078125 39.972656 62.558594 41.203125 62.339844 41.722656 C 62.113281 42.253906 61.917969 42.667969 61.898438 42.648438 C 61.878906 42.628906 62.261719 41.519531 62.765625 40.171875 C 64.859375 34.457031 65.292969 32.949219 64.878906 32.792969 C 64.4375 32.625 63.699219 33.433594 62.09375 35.851562 C 60.855469 37.730469 60.738281 37.867188 61.289062 36.835938 C 64.859375 30.070312 66.925781 26.8125 68.722656 25.070312 C 69.265625 24.539062 70.082031 23.902344 70.199219 23.902344 C 70.21875 23.902344 70.070312 24.117188 69.886719 24.375 Z M 67.976562 25.238281 C 66.511719 26.8125 64.496094 29.988281 61.957031 34.730469 C 61.140625 36.265625 60.355469 37.75 60.214844 38.035156 C 59.929688 38.617188 59.832031 38.675781 59.746094 38.320312 C 59.703125 38.144531 59.960938 37.554688 60.847656 35.882812 C 63.992188 29.882812 65.890625 26.980469 67.839844 25.179688 C 68.253906 24.804688 68.617188 24.492188 68.636719 24.492188 C 68.65625 24.492188 68.359375 24.828125 67.976562 25.238281 Z M 67.976562 25.238281 "/>
<path style=" stroke:none;fill-rule:nonzero;fill:rgb(0%,0%,0%);fill-opacity:1;" d="M 77.371094 26.183594 C 77.332031 26.578125 77.222656 28.476562 77.113281 30.394531 C 76.859375 34.828125 76.898438 34.476562 76.722656 34.484375 C 76.644531 34.496094 76.523438 34.503906 76.464844 34.503906 C 76.40625 34.515625 76.082031 35.144531 75.738281 35.902344 L 75.117188 37.277344 L 75.582031 39.097656 C 75.828125 40.09375 76.03125 40.9375 76.03125 40.96875 C 76.03125 40.996094 73.25 41.015625 69.847656 41.015625 C 66.441406 41.015625 63.589844 41.046875 63.5 41.074219 C 63.136719 41.214844 63.421875 41.292969 64.703125 41.398438 C 69.847656 41.851562 73.03125 42.816406 76.417969 44.949219 L 77.527344 45.648438 L 78.777344 44.910156 C 82.398438 42.757812 85.113281 41.949219 90.433594 41.429688 C 91.355469 41.332031 92.113281 41.214844 92.113281 41.164062 C 92.113281 41.09375 89.785156 41.054688 85.554688 41.035156 C 81.933594 41.027344 78.984375 40.996094 78.984375 40.96875 C 78.984375 40.9375 79.191406 40.179688 79.4375 39.285156 C 79.683594 38.390625 79.886719 37.535156 79.886719 37.386719 C 79.886719 37.25 79.613281 36.550781 79.277344 35.832031 C 78.777344 34.769531 78.621094 34.515625 78.394531 34.445312 C 78.128906 34.347656 78.128906 34.347656 78.070312 33.136719 C 77.949219 30.609375 77.683594 25.90625 77.644531 25.691406 C 77.558594 25.25 77.429688 25.496094 77.371094 26.183594 Z M 77.605469 28.496094 C 77.597656 29.558594 77.941406 34.484375 78.03125 34.59375 C 78.078125 34.664062 78.207031 34.722656 78.316406 34.722656 C 78.460938 34.722656 78.640625 35.007812 79.09375 35.960938 C 79.40625 36.640625 79.671875 37.277344 79.671875 37.378906 C 79.671875 37.464844 79.457031 38.359375 79.179688 39.355469 C 78.914062 40.347656 78.726562 41.195312 78.777344 41.242188 C 78.816406 41.28125 81.136719 41.3125 83.921875 41.292969 C 86.714844 41.273438 88.976562 41.292969 88.957031 41.320312 C 88.9375 41.359375 88.601562 41.410156 88.210938 41.449219 C 87.019531 41.566406 84.660156 42.078125 83.429688 42.480469 C 81.796875 43.03125 80.292969 43.730469 78.828125 44.605469 C 77.617188 45.34375 77.558594 45.363281 77.3125 45.226562 C 77.171875 45.148438 76.644531 44.824219 76.132812 44.507812 C 73.664062 42.992188 70.859375 41.988281 67.761719 41.519531 L 66.539062 41.332031 L 71.4375 41.320312 C 74.125 41.320312 76.328125 41.28125 76.328125 41.234375 C 76.328125 41.195312 76.113281 40.296875 75.847656 39.246094 C 75.296875 37.082031 75.265625 37.457031 76.09375 35.703125 C 76.476562 34.878906 76.59375 34.722656 76.78125 34.722656 C 76.90625 34.722656 77.027344 34.691406 77.054688 34.644531 C 77.074219 34.601562 77.171875 33.097656 77.273438 31.296875 C 77.371094 29.507812 77.488281 28.03125 77.527344 28.03125 C 77.566406 28.03125 77.605469 28.238281 77.605469 28.496094 Z M 77.605469 28.496094 "/>
<path style=" stroke:none;fill-rule:nonzero;fill:rgb(0%,0%,0%);fill-opacity:1;" d="M 76.425781 37.4375 C 76.425781 37.582031 77.4375 40.425781 77.5 40.425781 C 77.566406 40.425781 78.589844 37.683594 78.589844 37.496094 C 78.589844 37.40625 78.304688 37.378906 77.507812 37.378906 C 76.917969 37.378906 76.425781 37.40625 76.425781 37.4375 Z M 78.296875 37.664062 C 78.296875 37.722656 78.167969 38.09375 78.011719 38.507812 C 77.851562 38.921875 77.683594 39.382812 77.65625 39.539062 C 77.617188 39.707031 77.558594 39.835938 77.527344 39.835938 C 77.488281 39.835938 77.3125 39.382812 77.125 38.824219 C 76.949219 38.273438 76.769531 37.761719 76.75 37.691406 C 76.710938 37.601562 76.898438 37.574219 77.5 37.574219 C 77.941406 37.574219 78.296875 37.613281 78.296875 37.664062 Z M 78.296875 37.664062 "/>
<path style=" stroke:none;fill-rule:nonzero;fill:rgb(0%,0%,0%);fill-opacity:1;" d="M 27.886719 32.371094 C 26.65625 32.558594 25.496094 33.355469 24.628906 34.621094 C 24.375 34.996094 24.117188 35.3125 24.058594 35.3125 C 24 35.3125 23.664062 35.222656 23.332031 35.113281 C 22.03125 34.710938 20.722656 34.929688 19.828125 35.714844 C 19.328125 36.15625 18.214844 37.9375 17.96875 38.703125 C 17.765625 39.335938 17.605469 40.398438 17.605469 41.234375 C 17.605469 41.824219 17.578125 41.910156 17.320312 42.167969 C 16.847656 42.648438 16.820312 43.652344 17.273438 44.339844 C 17.429688 44.578125 17.429688 44.597656 17.253906 44.722656 C 14.890625 46.4375 14.09375 47.519531 13.988281 49.140625 C 13.917969 50.371094 14.261719 51.355469 15.207031 52.621094 C 15.667969 53.234375 15.6875 53.28125 15.679688 53.902344 C 15.667969 54.660156 15.492188 55.09375 14.46875 56.804688 C 13.75 58.003906 13.378906 58.957031 13.378906 59.597656 C 13.378906 60.265625 13.664062 61.269531 14.242188 62.746094 C 14.960938 64.523438 15.089844 65.066406 15.078125 66.34375 C 15.058594 68.261719 14.605469 69.078125 12.246094 71.507812 C 10.09375 73.710938 9.777344 74.300781 9.855469 75.972656 C 9.886719 76.722656 9.945312 76.976562 10.191406 77.507812 C 10.5625 78.296875 11.359375 79.378906 11.558594 79.378906 C 11.746094 79.378906 11.746094 79.289062 11.566406 79.09375 C 11.332031 78.828125 11.015625 77.910156 10.957031 77.320312 C 10.878906 76.652344 11.105469 75.699219 11.480469 75.050781 C 11.871094 74.371094 12.53125 73.542969 13.703125 72.246094 C 15.011719 70.800781 15.582031 69.972656 15.835938 69.167969 C 16.347656 67.542969 16.210938 66.296875 15.109375 62.558594 C 14.683594 61.121094 14.625 60.195312 14.890625 59.261719 C 15.050781 58.742188 15.492188 57.738281 15.582031 57.738281 C 15.589844 57.738281 15.570312 58.011719 15.519531 58.335938 C 15.382812 59.214844 15.550781 59.96875 16.140625 61.179688 C 16.574219 62.074219 16.691406 62.460938 17.046875 64.132812 C 17.410156 65.902344 17.449219 66.167969 17.449219 67.621094 C 17.460938 69.609375 17.371094 69.914062 16.257812 71.585938 C 14.902344 73.644531 14.125 75.480469 13.808594 77.410156 C 13.613281 78.550781 13.683594 79.867188 13.976562 80.824219 C 14.195312 81.511719 15.070312 83.351562 15.234375 83.449219 C 15.453125 83.585938 15.421875 83.292969 15.148438 82.484375 C 14.746094 81.316406 14.617188 80.398438 14.695312 79.269531 C 14.804688 77.578125 15.5 75.640625 16.691406 73.769531 C 18.492188 70.929688 18.640625 70.535156 18.640625 68.605469 C 18.640625 67.21875 18.421875 65.890625 18.039062 64.789062 C 17.832031 64.199219 18.019531 64.457031 18.324219 65.195312 C 18.953125 66.667969 19.257812 68.734375 19.082031 70.199219 C 19.023438 70.671875 18.777344 71.8125 18.539062 72.738281 C 18.050781 74.65625 17.902344 75.582031 17.902344 76.839844 C 17.902344 77.714844 17.890625 77.765625 17.417969 78.726562 C 16.839844 79.90625 16.398438 81.195312 16.132812 82.464844 C 15.914062 83.488281 15.828125 85.023438 15.984375 85.050781 C 16.042969 85.0625 16.152344 84.707031 16.238281 84.265625 C 16.59375 82.484375 17.234375 80.625 17.980469 79.230469 C 18.265625 78.6875 18.402344 78.519531 18.640625 78.460938 C 20.253906 77.988281 23.625 76.347656 25.496094 75.109375 L 25.761719 74.929688 L 25.476562 76.023438 C 24.5625 79.496094 22.761719 82.335938 19.78125 85.03125 C 19.179688 85.574219 18.6875 86.046875 18.6875 86.085938 C 18.6875 86.273438 18.984375 86.113281 19.9375 85.425781 C 20.488281 85.023438 20.949219 84.71875 20.949219 84.738281 C 20.949219 84.757812 20.410156 85.191406 19.75 85.691406 C 18.914062 86.320312 18.601562 86.617188 18.71875 86.636719 C 19.070312 86.703125 22.296875 84.738281 23.84375 83.507812 C 24.777344 82.761719 26.832031 80.792969 27.355469 80.132812 C 27.726562 79.671875 27.726562 79.671875 27.847656 79.886719 C 27.953125 80.085938 27.945312 80.09375 27.816406 79.988281 C 27.679688 79.878906 27.660156 79.988281 27.589844 80.910156 C 27.453125 82.917969 27.058594 84.253906 26.046875 86.164062 C 25.289062 87.609375 23.300781 90.550781 21.648438 92.703125 C 21.050781 93.472656 20.960938 93.640625 21.136719 93.640625 C 21.253906 93.640625 22.976562 91.78125 24.050781 90.492188 C 26.261719 87.835938 27.785156 85.761719 29.027344 83.722656 C 29.351562 83.203125 29.605469 82.828125 29.605469 82.898438 C 29.605469 83.054688 28.652344 84.621094 27.757812 85.917969 C 26.4375 87.847656 24.355469 90.402344 22.09375 92.890625 C 21.414062 93.640625 20.851562 94.289062 20.851562 94.335938 C 20.851562 94.632812 21.296875 94.296875 23.359375 92.449219 C 25.808594 90.265625 28.03125 87.816406 29.675781 85.484375 L 30.34375 84.550781 L 30.953125 85.828125 C 31.289062 86.527344 31.5625 87.136719 31.5625 87.195312 C 31.5625 87.246094 31.296875 86.746094 30.972656 86.074219 C 30.640625 85.367188 30.355469 84.886719 30.304688 84.945312 C 30.253906 84.992188 30.277344 85.464844 30.355469 86.015625 C 30.628906 88.050781 30.492188 90.1875 29.960938 92.410156 C 29.65625 93.679688 28.75 96.433594 28.191406 97.820312 C 27.90625 98.527344 27.785156 98.941406 27.847656 99.011719 C 27.90625 99.089844 27.886719 99.253906 27.777344 99.480469 C 27.589844 99.875 27.648438 100.03125 27.894531 99.828125 C 28.703125 99.15625 32.273438 92.664062 32.804688 90.90625 C 32.832031 90.785156 32.902344 90.6875 32.941406 90.6875 C 32.96875 90.6875 33.539062 92.3125 34.199219 94.296875 C 35.292969 97.59375 35.605469 98.371094 35.605469 97.769531 C 35.605469 97.652344 35.65625 97.59375 35.703125 97.621094 C 35.84375 97.710938 35.832031 97.59375 35.5 95.4375 C 34.523438 89.152344 33.363281 85.199219 30.964844 79.976562 C 29.507812 76.800781 28.730469 74.417969 28.367188 72.050781 C 28.191406 70.820312 28.140625 68.488281 28.277344 67.328125 C 28.367188 66.5625 28.378906 66.601562 28.4375 68.410156 C 28.554688 71.929688 29.105469 73.742188 32.390625 81.402344 C 33.070312 82.976562 33.804688 84.765625 34.03125 85.386719 C 35.585938 89.617188 36.304688 93.246094 36.460938 97.703125 C 36.5 98.960938 36.5625 99.53125 36.628906 99.511719 C 36.804688 99.453125 36.894531 96.640625 36.785156 94.621094 C 36.5625 90.402344 36 87.835938 34.191406 82.671875 C 34.152344 82.5625 34.210938 82.644531 34.328125 82.839844 C 34.515625 83.183594 34.722656 83.332031 34.722656 83.125 C 34.722656 83.074219 34.484375 82.425781 34.191406 81.667969 C 32.28125 76.761719 31.25 72.539062 31.113281 69.050781 C 30.933594 64.691406 32.09375 61.476562 34.917969 58.425781 L 35.417969 57.886719 L 34.859375 58.789062 C 33.609375 60.847656 32.695312 63.511719 32.3125 66.207031 C 32.144531 67.425781 32.113281 70.328125 32.273438 71.863281 C 32.332031 72.453125 32.398438 72.953125 32.417969 72.984375 C 32.449219 73.003906 32.507812 72.964844 32.558594 72.886719 C 32.617188 72.785156 32.65625 73.269531 32.65625 74.214844 C 32.65625 75.835938 32.722656 76.457031 32.890625 76.398438 C 32.960938 76.378906 33.03125 75.90625 33.070312 75.1875 C 33.195312 73.269531 33.609375 70.652344 33.925781 69.835938 C 34.011719 69.601562 34.011719 69.601562 34.09375 69.785156 C 35.320312 73.042969 36.226562 74.785156 37.9375 77.214844 C 38.300781 77.722656 38.5 78.070312 38.390625 77.96875 C 37.929688 77.566406 38.09375 78.050781 38.832031 79.25 C 41.398438 83.4375 43.121094 87.148438 44.339844 91.132812 C 45.070312 93.511719 45.816406 97.03125 46.132812 99.582031 C 46.230469 100.398438 46.367188 100.722656 46.613281 100.722656 C 46.671875 100.722656 46.722656 100.671875 46.722656 100.621094 C 46.722656 100.5625 46.789062 99.90625 46.878906 99.167969 C 47.171875 96.667969 46.9375 93.253906 46.289062 90.550781 C 45.765625 88.386719 44.804688 85.808594 43.859375 84.019531 L 43.378906 83.113281 L 43.671875 81.757812 C 44.105469 79.730469 44.195312 78.5 44.132812 75.894531 C 44.105469 74.644531 44.027344 73.296875 43.96875 72.90625 C 43.859375 72.214844 43.867188 72.128906 44.152344 71.183594 C 44.3125 70.632812 44.558594 69.699219 44.695312 69.117188 C 44.988281 67.886719 45.777344 65.714844 46.347656 64.574219 C 46.929688 63.433594 47.8125 62.132812 49.238281 60.324219 C 49.9375 59.460938 51.519531 57.355469 52.769531 55.652344 C 54.011719 53.960938 55.691406 51.6875 56.5 50.605469 C 57.992188 48.601562 58.121094 48.394531 57.953125 48.394531 C 57.816406 48.394531 57.1875 49.09375 55.5625 51.050781 C 54.777344 51.992188 52.703125 54.492188 50.949219 56.605469 C 49.199219 58.710938 47.410156 60.828125 46.988281 61.308594 C 46.050781 62.339844 45.039062 63.214844 44.644531 63.296875 C 44.320312 63.375 44.300781 63.441406 44.214844 65.09375 C 44.183594 65.714844 44.066406 66.796875 43.96875 67.503906 L 43.78125 68.804688 L 43.140625 69.402344 C 42.746094 69.785156 42.234375 70.152344 41.746094 70.386719 C 41.074219 70.722656 40.886719 70.769531 40.289062 70.769531 C 39.726562 70.769531 39.480469 70.722656 39.03125 70.496094 C 36.894531 69.441406 35.664062 65.644531 36.246094 61.867188 C 36.460938 60.441406 36.738281 59.578125 37.4375 58.140625 C 37.78125 57.414062 38.046875 56.804688 38.027344 56.773438 C 37.929688 56.683594 37.277344 57.5 36.796875 58.316406 C 36.195312 59.3125 35.566406 60.886719 35.300781 62.046875 C 35.046875 63.15625 34.949219 65.636719 35.113281 66.933594 C 35.429688 69.480469 36.34375 71.929688 38.046875 74.804688 C 38.683594 75.886719 39.621094 77.300781 40.0625 77.851562 L 40.296875 78.136719 L 40.457031 77.851562 C 40.535156 77.683594 40.847656 76.808594 41.152344 75.90625 C 41.460938 74.988281 41.863281 73.957031 42.050781 73.59375 C 42.394531 72.914062 42.875 72.109375 42.886719 72.195312 C 42.886719 72.226562 42.707031 72.875 42.5 73.644531 C 42.175781 74.8125 41.714844 76.949219 41.320312 79.132812 L 41.234375 79.621094 L 41.222656 79.160156 C 41.222656 78.90625 41.371094 77.84375 41.558594 76.800781 C 41.988281 74.488281 41.96875 74.617188 41.863281 74.558594 C 41.8125 74.527344 41.507812 75.304688 41.171875 76.277344 C 40.839844 77.253906 40.523438 78.128906 40.464844 78.234375 C 40.367188 78.394531 40.289062 78.335938 39.765625 77.644531 C 37.59375 74.773438 35.851562 71.378906 35.164062 68.664062 C 34.316406 65.320312 34.703125 61.789062 36.214844 58.78125 C 36.894531 57.433594 37.96875 56.339844 39.253906 55.671875 C 40.101562 55.238281 43.316406 52.996094 44.460938 52.042969 C 46.042969 50.734375 48.324219 48.277344 51.699219 44.261719 C 53.683594 41.902344 56.949219 37.722656 56.949219 37.535156 C 56.949219 37.289062 56.519531 37.710938 55.328125 39.117188 C 53.171875 41.683594 51.265625 43.769531 49.316406 45.699219 C 46.800781 48.195312 44.96875 49.78125 40.96875 52.917969 L 39.785156 53.84375 L 38.851562 53.910156 C 38.332031 53.949219 37.664062 54.078125 37.335938 54.1875 C 37.011719 54.304688 36.746094 54.394531 36.738281 54.394531 C 36.71875 54.394531 36.6875 54.070312 36.667969 53.675781 C 36.640625 53.035156 36.589844 52.898438 36.175781 52.210938 C 35.429688 50.988281 35.273438 50.4375 35.273438 48.914062 C 35.261719 48.195312 35.242188 47.605469 35.203125 47.605469 C 35.171875 47.605469 35.09375 47.664062 35.015625 47.722656 C 34.9375 47.792969 35.144531 47.558594 35.488281 47.195312 C 35.871094 46.789062 36.097656 46.457031 36.097656 46.308594 C 36.097656 46.191406 36.167969 45.796875 36.246094 45.441406 C 36.324219 45.089844 36.453125 44.28125 36.53125 43.644531 L 36.679688 42.472656 L 37.355469 41.84375 C 38.410156 40.878906 38.824219 39.777344 38.519531 38.746094 C 38.222656 37.730469 37.445312 37.132812 36.097656 36.886719 C 35.214844 36.726562 35.035156 36.609375 34.160156 35.636719 C 32.074219 33.316406 31.5625 32.882812 30.511719 32.558594 C 29.804688 32.339844 28.644531 32.253906 27.886719 32.371094 Z M 30.226562 32.703125 C 30.539062 32.785156 30.984375 32.941406 31.210938 33.058594 C 31.632812 33.277344 33.117188 34.710938 33.738281 35.5 C 34.042969 35.890625 33.945312 35.832031 32.949219 35.027344 C 32.332031 34.523438 31.554688 33.992188 31.230469 33.835938 C 29.027344 32.792969 26.773438 33.078125 25.140625 34.613281 C 24.648438 35.074219 24.582031 35.113281 24.746094 34.839844 C 25.355469 33.855469 26.292969 33.078125 27.277344 32.746094 C 27.925781 32.519531 29.4375 32.5 30.226562 32.703125 Z M 29.902344 33.601562 C 30.589844 33.757812 31.878906 34.347656 32.085938 34.601562 C 32.152344 34.683594 32.015625 34.632812 31.769531 34.476562 C 30.621094 33.746094 29.261719 33.480469 28.171875 33.777344 C 26.960938 34.101562 25.542969 35.242188 24.71875 36.5625 L 24.265625 37.289062 L 23.960938 36.992188 C 23.792969 36.835938 23.371094 36.5625 23.015625 36.382812 C 22.484375 36.109375 22.238281 36.050781 21.589844 36.011719 C 20.636719 35.96875 20.851562 35.824219 21.886719 35.8125 C 22.457031 35.804688 22.703125 35.863281 23.332031 36.136719 L 24.089844 36.460938 L 24.34375 35.949219 C 24.628906 35.351562 25.652344 34.347656 26.292969 34.011719 C 27.394531 33.441406 28.644531 33.304688 29.902344 33.601562 Z M 30.207031 33.992188 C 31.042969 34.238281 31.828125 34.703125 33 35.636719 C 34.316406 36.6875 34.839844 36.953125 35.824219 37.082031 C 37.503906 37.289062 38.359375 38.054688 38.359375 39.355469 C 38.359375 40.21875 38.113281 40.78125 37.425781 41.480469 C 37.101562 41.824219 36.777344 42.097656 36.707031 42.097656 C 36.492188 42.097656 36.589844 41.84375 36.933594 41.507812 C 37.25 41.203125 37.574219 40.503906 37.574219 40.140625 C 37.574219 39.746094 37.335938 39.195312 37.011719 38.851562 C 36.058594 37.789062 34.25 37.554688 32.222656 38.222656 C 31.160156 38.578125 30.707031 38.519531 29.28125 37.859375 C 28.308594 37.40625 28.09375 37.335938 27.394531 37.296875 C 26.804688 37.269531 26.507812 37.296875 26.222656 37.417969 C 26.007812 37.503906 25.820312 37.554688 25.800781 37.535156 C 25.703125 37.4375 26.863281 36.5625 27.34375 36.382812 C 28.25 36.039062 28.96875 36.148438 30.414062 36.847656 L 31.601562 37.425781 L 32.746094 37.425781 C 33.375 37.425781 34.050781 37.386719 34.257812 37.347656 C 34.75 37.25 34.683594 37.160156 33.441406 36.34375 C 31.789062 35.234375 30.828125 34.90625 29.195312 34.90625 C 27.589844 34.90625 26.546875 35.332031 25.179688 36.550781 L 24.648438 37.03125 L 25.082031 36.414062 C 26.449219 34.445312 28.484375 33.492188 30.207031 33.992188 Z M 23.566406 35.410156 C 24.167969 35.617188 24.175781 35.617188 24.070312 35.890625 L 23.96875 36.167969 L 23.46875 35.949219 C 22.09375 35.339844 21.019531 35.4375 19.839844 36.265625 C 19.503906 36.5 19.398438 36.539062 19.464844 36.414062 C 19.683594 36.011719 20.507812 35.410156 21.148438 35.203125 C 21.550781 35.066406 22.917969 35.183594 23.566406 35.410156 Z M 31.269531 35.4375 C 32.007812 35.695312 33.304688 36.433594 33.867188 36.894531 L 34.179688 37.160156 L 33.511719 37.230469 C 32.253906 37.367188 31.800781 37.277344 30.519531 36.628906 L 29.359375 36.050781 L 28.378906 36.050781 C 27.421875 36.050781 27.363281 36.058594 26.8125 36.394531 C 25.988281 36.886719 24.738281 38.273438 25.355469 38.015625 C 27.039062 37.289062 27.5625 37.296875 29.214844 38.074219 C 30.660156 38.746094 31.160156 38.792969 32.417969 38.398438 C 33.628906 38.027344 34.847656 37.96875 35.644531 38.253906 C 35.96875 38.359375 36.285156 38.507812 36.335938 38.566406 C 36.414062 38.65625 36.382812 38.65625 36.226562 38.566406 C 35.882812 38.390625 35.261719 38.4375 34.554688 38.714844 C 33.097656 39.265625 32.4375 39.441406 31.886719 39.441406 C 31.140625 39.433594 30.757812 39.285156 29.980469 38.683594 C 29.152344 38.054688 28.417969 37.769531 27.609375 37.769531 C 26.824219 37.769531 26.460938 37.878906 25.683594 38.332031 C 24.914062 38.785156 24.777344 39.011719 25.335938 38.910156 C 26.96875 38.625 27.453125 38.734375 29.714844 39.964844 C 30.207031 40.238281 30.765625 40.457031 31.09375 40.515625 L 31.621094 40.601562 L 30.984375 40.613281 C 30.15625 40.621094 29.539062 40.464844 28.03125 39.855469 C 26.792969 39.355469 25.761719 39.148438 25.484375 39.324219 C 25.316406 39.441406 25.425781 39.640625 25.664062 39.640625 C 25.867188 39.640625 27.097656 40.238281 28.160156 40.847656 C 28.582031 41.09375 29.183594 41.390625 29.488281 41.519531 C 29.792969 41.636719 30.058594 41.746094 30.078125 41.753906 C 30.136719 41.804688 30.394531 43.730469 30.355469 43.828125 C 30.296875 43.988281 28.886719 44.449219 27.953125 44.605469 C 26.960938 44.792969 24.992188 44.792969 24.078125 44.617188 C 23.339844 44.46875 21.855469 44.007812 21.699219 43.859375 C 21.582031 43.75 21.804688 42.640625 22.050781 42.148438 C 22.523438 41.214844 23.398438 40.457031 24.570312 39.984375 C 25.40625 39.648438 25.367188 39.492188 24.480469 39.570312 C 22.761719 39.71875 21.628906 40.40625 21.175781 41.578125 L 21.039062 41.949219 L 21.089844 41.378906 C 21.148438 40.703125 21.421875 40.210938 21.867188 40.003906 C 22.367188 39.765625 23.617188 39.441406 24.050781 39.441406 C 24.265625 39.441406 24.511719 39.402344 24.589844 39.34375 C 24.867188 39.175781 24.394531 39.109375 22.820312 39.109375 C 21.460938 39.097656 21.253906 39.117188 20.902344 39.304688 C 20.074219 39.738281 19.878906 40.476562 20.253906 41.714844 C 20.359375 42.058594 20.480469 42.601562 20.519531 42.925781 L 20.585938 43.503906 L 20.085938 43.230469 C 19.257812 42.777344 19.179688 42.667969 19.179688 41.960938 C 19.179688 40.199219 20.214844 38.84375 21.886719 38.398438 C 22.582031 38.214844 23.066406 38.234375 23.832031 38.5 C 24.601562 38.753906 24.648438 38.722656 24.5 38.054688 C 24.382812 37.554688 24.402344 37.523438 25.574219 36.519531 C 26.3125 35.890625 27.1875 35.398438 27.894531 35.222656 C 28.113281 35.164062 28.789062 35.132812 29.410156 35.152344 C 30.324219 35.171875 30.679688 35.234375 31.269531 35.4375 Z M 22.996094 36.628906 C 23.390625 36.847656 23.8125 37.140625 23.949219 37.296875 C 24.175781 37.574219 24.375 38.214844 24.265625 38.320312 C 24.234375 38.359375 23.980469 38.300781 23.695312 38.214844 C 22.542969 37.828125 20.941406 38.253906 20.046875 39.175781 C 19.347656 39.886719 19.0625 40.601562 19.003906 41.722656 C 18.964844 42.648438 18.964844 42.679688 19.21875 42.914062 C 19.730469 43.398438 21.875 44.28125 23.65625 44.753906 C 24.472656 44.96875 24.195312 45.011719 23.242188 44.804688 C 21.933594 44.527344 20.183594 43.800781 19.417969 43.21875 C 18.972656 42.875 18.796875 42.925781 19.140625 43.289062 C 19.367188 43.542969 19.386719 43.574219 19.210938 43.484375 C 18.953125 43.355469 18.589844 43.335938 18.589844 43.464844 C 18.589844 43.503906 18.679688 43.664062 18.785156 43.800781 C 19.082031 44.171875 19.03125 44.195312 18.589844 43.90625 C 17.863281 43.425781 17.929688 43.90625 18.726562 44.871094 C 19.316406 45.589844 20.132812 46.199219 21.089844 46.621094 C 22.613281 47.3125 25.132812 47.882812 26.988281 47.960938 C 27.90625 48 28.445312 48.089844 29.3125 48.324219 C 30.214844 48.582031 30.628906 48.640625 31.378906 48.640625 C 32.234375 48.640625 32.371094 48.609375 32.960938 48.324219 C 33.726562 47.941406 34.496094 47.300781 34.386719 47.132812 C 34.308594 46.996094 33.847656 47.054688 33.195312 47.28125 C 32.746094 47.4375 32.753906 47.429688 33.757812 46.632812 C 34.976562 45.667969 35.113281 45.285156 34.191406 45.375 C 33.914062 45.394531 33.601562 45.453125 33.492188 45.492188 C 33.382812 45.53125 33.707031 45.285156 34.210938 44.941406 C 34.710938 44.597656 35.144531 44.234375 35.171875 44.144531 C 35.261719 43.847656 35.113281 43.742188 34.683594 43.800781 L 34.277344 43.847656 L 34.652344 43.542969 C 34.847656 43.367188 35.015625 43.171875 35.015625 43.101562 C 35.015625 42.796875 34.113281 43.070312 31.742188 44.113281 C 30.070312 44.84375 29.605469 44.949219 28.03125 45 C 27.304688 45.019531 26.863281 45.011719 27.050781 44.988281 C 28.011719 44.851562 29.398438 44.519531 30.050781 44.261719 C 31.289062 43.769531 34.070312 42.324219 34.347656 42.03125 C 34.878906 41.46875 35.3125 40.023438 35.007812 39.828125 C 34.898438 39.757812 34.898438 39.738281 35.046875 39.738281 C 35.195312 39.738281 35.214844 39.835938 35.214844 40.476562 C 35.214844 41.273438 35.390625 41.605469 35.792969 41.605469 C 35.902344 41.605469 36.078125 41.722656 36.195312 41.871094 C 36.402344 42.128906 36.414062 42.214844 36.355469 43.21875 C 36.316406 43.808594 36.207031 44.625 36.097656 45.03125 C 35.988281 45.441406 35.902344 45.925781 35.902344 46.113281 C 35.902344 46.398438 35.792969 46.5625 35.144531 47.234375 C 34.289062 48.109375 32.871094 49.113281 32.234375 49.289062 C 31.78125 49.40625 31.199219 49.308594 29.625 48.835938 C 29.085938 48.679688 28.355469 48.5625 27.539062 48.492188 C 24.804688 48.285156 23.4375 47.960938 21.707031 47.105469 C 21.277344 46.886719 20.902344 46.722656 20.871094 46.722656 C 20.851562 46.722656 20.851562 47.074219 20.882812 47.5 C 20.941406 48.355469 21.167969 48.972656 21.828125 50.015625 C 22.367188 50.871094 22.535156 51.421875 22.535156 52.425781 C 22.535156 53.46875 22.515625 53.585938 21.964844 54.914062 C 21.726562 55.503906 21.480469 56.222656 21.433594 56.527344 C 21.226562 57.621094 21.601562 58.828125 22.601562 60.304688 C 23.695312 61.9375 23.832031 62.546875 23.519531 64.554688 C 23.339844 65.683594 23.320312 66.019531 23.410156 66.570312 C 23.597656 67.710938 24.246094 68.863281 25.121094 69.582031 C 25.515625 69.90625 25.582031 69.925781 25.820312 69.816406 C 25.957031 69.757812 26.09375 69.609375 26.113281 69.5 C 26.144531 69.382812 26.253906 68.851562 26.371094 68.3125 C 26.910156 65.773438 27.886719 63.726562 29.195312 62.398438 C 29.617188 61.976562 29.890625 61.574219 30.226562 60.886719 C 30.855469 59.558594 31.5625 58.542969 32.625 57.441406 C 33.699219 56.3125 33.726562 56.234375 33.1875 55.160156 L 32.832031 54.460938 L 32.617188 54.992188 C 32.339844 55.691406 31.847656 56.390625 31.457031 56.664062 C 30.835938 57.117188 29.625 56.988281 28.179688 56.320312 C 27.460938 55.988281 25.574219 54.90625 25.574219 54.828125 C 25.574219 54.804688 25.839844 54.914062 26.164062 55.082031 C 26.988281 55.496094 28.335938 55.867188 29.273438 55.9375 C 29.988281 55.988281 30.128906 55.96875 30.621094 55.742188 C 31.839844 55.179688 32.792969 53.320312 33.875 49.367188 C 34.003906 48.90625 34.101562 48.757812 34.496094 48.453125 L 34.96875 48.089844 L 35.035156 49.199219 C 35.113281 50.558594 35.332031 51.285156 35.960938 52.296875 C 36.382812 52.988281 36.441406 53.132812 36.460938 53.703125 C 36.480469 54.15625 36.460938 54.265625 36.402344 54.089844 C 36.246094 53.625 36.070312 53.359375 35.488281 52.75 C 34.898438 52.121094 34.59375 51.582031 34.476562 50.921875 C 34.378906 50.410156 34.25 50.585938 34.171875 51.316406 C 34.09375 52.0625 34.21875 52.601562 34.730469 53.695312 C 35.164062 54.621094 35.214844 54.804688 34.90625 54.296875 C 34.789062 54.109375 34.535156 53.773438 34.335938 53.558594 C 34.140625 53.339844 33.914062 53.015625 33.847656 52.839844 C 33.777344 52.671875 33.679688 52.523438 33.640625 52.523438 C 33.511719 52.523438 33.304688 53.4375 33.316406 53.949219 C 33.316406 54.214844 33.421875 54.804688 33.539062 55.257812 C 33.660156 55.710938 33.726562 56.144531 33.699219 56.234375 C 33.609375 56.449219 33.804688 56.359375 34.644531 55.789062 C 36.207031 54.738281 37.554688 54.214844 38.941406 54.128906 L 39.867188 54.070312 L 41.988281 52.398438 C 46.503906 48.847656 49.683594 45.90625 52.859375 42.316406 C 53.949219 41.085938 54.355469 40.710938 53.597656 41.625 C 50.214844 45.726562 47.546875 48.765625 45.992188 50.320312 C 44.359375 51.933594 40.730469 54.679688 39.246094 55.425781 C 37.769531 56.164062 36.828125 57.117188 36 58.742188 C 35.359375 59.96875 34.988281 61.140625 34.722656 62.714844 C 34.535156 63.804688 34.503906 64.21875 34.554688 65.65625 C 34.613281 67.464844 34.761719 68.292969 35.3125 69.933594 C 35.929688 71.765625 36.835938 73.621094 38.085938 75.589844 C 38.863281 76.808594 40.308594 78.785156 40.425781 78.785156 C 40.503906 78.785156 40.996094 77.578125 41.222656 76.828125 C 41.410156 76.21875 41.429688 76.40625 41.273438 77.171875 C 41.195312 77.558594 41.074219 78.226562 41.027344 78.679688 C 40.929688 79.425781 40.9375 79.523438 41.125 79.898438 C 41.378906 80.390625 41.460938 80.28125 41.546875 79.355469 C 41.65625 78.253906 42.167969 75.804688 42.785156 73.425781 C 43.113281 72.175781 43.535156 70.582031 43.710938 69.886719 C 44.105469 68.390625 44.332031 66.886719 44.449219 64.988281 C 44.5 64.238281 44.558594 63.621094 44.578125 63.609375 C 44.597656 63.601562 44.785156 63.5 45 63.394531 C 45.679688 63.050781 47.488281 61.140625 50.015625 58.082031 C 54.5 52.671875 55.199219 51.835938 55.25 51.835938 C 55.277344 51.835938 55.191406 51.984375 55.0625 52.152344 C 54.925781 52.328125 54.382812 53.074219 53.851562 53.804688 C 51.738281 56.714844 50.359375 58.542969 49.210938 60 C 46.347656 63.601562 45.375 65.488281 44.410156 69.382812 C 44.222656 70.140625 43.96875 71.066406 43.859375 71.449219 C 43.664062 72.097656 43.652344 72.214844 43.761719 73.082031 C 43.949219 74.539062 44.007812 77.507812 43.878906 78.886719 C 43.820312 79.5625 43.632812 80.792969 43.457031 81.621094 L 43.152344 83.125 L 43.800781 84.421875 C 45.226562 87.277344 46.082031 89.988281 46.523438 93 C 46.75 94.5625 46.878906 97.4375 46.75 98.3125 C 46.671875 98.851562 46.664062 98.765625 46.59375 97.378906 C 46.335938 91.386719 44.605469 86.195312 41.332031 81.492188 C 41.027344 81.058594 40.171875 79.878906 39.421875 78.867188 C 37.210938 75.847656 36.363281 74.5 35.417969 72.472656 C 34.386719 70.269531 33.816406 68.234375 33.621094 66.011719 C 33.550781 65.152344 33.480469 64.769531 33.433594 64.90625 C 33.148438 65.65625 32.585938 69.5625 32.539062 71.09375 C 32.519531 71.949219 32.378906 70.417969 32.371094 69.089844 C 32.332031 65.152344 33.472656 61.257812 35.566406 58.121094 C 35.960938 57.519531 36.5625 56.722656 36.886719 56.351562 C 37.210938 55.96875 37.476562 55.621094 37.476562 55.574219 C 37.476562 55.445312 36.804688 55.703125 36.011719 56.113281 C 34.09375 57.128906 32.066406 59.417969 30.992188 61.789062 C 30.609375 62.625 30.136719 64.101562 29.929688 65.113281 C 29.664062 66.394531 29.695312 69.492188 29.980469 71.066406 C 30.460938 73.652344 30.972656 75.316406 32.332031 78.667969 C 34.425781 83.871094 35.007812 85.503906 35.597656 87.886719 C 36.15625 90.136719 36.601562 93.246094 36.582031 94.722656 C 36.570312 95.300781 36.5625 95.253906 36.433594 94.230469 C 35.910156 89.890625 34.90625 86.585938 32.320312 80.664062 C 30.71875 77.007812 29.617188 74.085938 29.152344 72.246094 C 28.484375 69.621094 28.445312 66.34375 29.054688 63.925781 C 29.171875 63.441406 29.242188 63.050781 29.195312 63.050781 C 29.066406 63.050781 28.535156 63.835938 28.171875 64.554688 C 27.402344 66.070312 27.089844 68.027344 27.175781 70.867188 C 27.277344 74.378906 27.855469 76.523438 29.851562 80.804688 C 31.582031 84.519531 32.320312 86.417969 33.246094 89.5 C 33.816406 91.398438 34.929688 95.527344 34.886719 95.578125 C 34.867188 95.585938 34.4375 94.335938 33.933594 92.804688 C 33.421875 91.257812 32.980469 90 32.941406 90 C 32.910156 90 32.734375 90.414062 32.558594 90.90625 C 32.132812 92.09375 30.539062 95.261719 29.410156 97.152344 C 28.917969 97.976562 28.496094 98.65625 28.476562 98.65625 C 28.457031 98.65625 28.722656 98.046875 29.074219 97.308594 C 30.511719 94.296875 32.125 90.070312 32.3125 88.867188 C 32.359375 88.523438 32.28125 88.269531 31.621094 86.804688 C 31.210938 85.878906 30.777344 84.925781 30.667969 84.667969 C 30.5625 84.402344 30.433594 84.195312 30.394531 84.195312 C 30.355469 84.195312 29.941406 84.738281 29.460938 85.398438 C 28.976562 86.066406 28.210938 87.070312 27.746094 87.640625 C 26.832031 88.761719 24 91.644531 22.820312 92.65625 C 22.003906 93.363281 21.933594 93.460938 23.902344 91.171875 C 26.480469 88.179688 28.652344 85.230469 29.566406 83.460938 L 29.851562 82.917969 L 29.625 82.542969 C 29.507812 82.347656 29.054688 81.550781 28.613281 80.785156 C 28.171875 80.007812 27.785156 79.378906 27.746094 79.378906 C 27.707031 79.378906 27.414062 79.691406 27.097656 80.074219 C 26.339844 80.988281 24.679688 82.5625 23.558594 83.4375 C 22.722656 84.097656 21.089844 85.199219 20.558594 85.476562 C 20.253906 85.632812 20.273438 85.613281 21.058594 84.972656 C 22.277344 83.96875 23.222656 83.074219 24.148438 82.03125 C 25.664062 80.320312 27.148438 78.265625 27.148438 77.871094 C 27.148438 77.765625 27.019531 77.273438 26.863281 76.78125 C 26.703125 76.289062 26.5 75.539062 26.398438 75.117188 C 26.300781 74.703125 26.195312 74.359375 26.152344 74.359375 C 26.125 74.359375 25.898438 74.507812 25.664062 74.683594 C 24.234375 75.765625 19.386719 78.195312 18.660156 78.195312 C 18.53125 78.195312 18.355469 78.253906 18.265625 78.316406 C 18.011719 78.519531 17.132812 80.390625 16.710938 81.628906 C 16.296875 82.859375 16.199219 82.917969 16.535156 81.738281 C 16.859375 80.558594 17.222656 79.59375 17.683594 78.6875 L 18.117188 77.851562 L 18.15625 76.476562 C 18.1875 75.039062 18.277344 74.605469 18.992188 71.902344 C 19.289062 70.769531 19.316406 70.554688 19.308594 69.246094 C 19.308594 67.730469 19.191406 67.003906 18.726562 65.625 C 18.492188 64.90625 17.429688 62.851562 17.300781 62.851562 C 17.273438 62.851562 17.410156 63.414062 17.625 64.101562 C 18.375 66.601562 18.628906 68.636719 18.355469 69.925781 C 18.15625 70.847656 17.8125 71.578125 16.929688 72.933594 C 14.824219 76.160156 14.074219 78.875 14.605469 81.382812 C 14.683594 81.757812 14.734375 82.082031 14.714844 82.101562 C 14.65625 82.160156 14.195312 80.832031 14.066406 80.214844 C 13.886719 79.40625 13.90625 77.910156 14.113281 76.988281 C 14.480469 75.226562 15.226562 73.5625 16.503906 71.636719 C 17.605469 69.964844 17.65625 69.785156 17.644531 67.621094 C 17.644531 65.929688 17.625 65.765625 17.234375 63.964844 C 16.878906 62.300781 16.761719 61.9375 16.308594 61.011719 L 15.785156 59.96875 L 15.785156 58.828125 C 15.785156 57.757812 15.804688 57.621094 16.171875 56.617188 C 16.503906 55.671875 16.542969 55.457031 16.503906 54.894531 C 16.445312 54.128906 16.238281 53.675781 15.421875 52.554688 C 14.359375 51.078125 14.035156 50.015625 14.242188 48.777344 C 14.460938 47.527344 15.070312 46.664062 16.484375 45.589844 C 16.917969 45.277344 17.359375 44.929688 17.46875 44.824219 L 17.683594 44.644531 L 17.4375 44.203125 C 17.222656 43.820312 17.195312 43.671875 17.234375 43.113281 C 17.273438 42.519531 17.300781 42.433594 17.578125 42.226562 C 17.851562 42.019531 17.871094 41.949219 17.84375 41.527344 C 17.8125 41.074219 17.8125 41.074219 17.902344 41.605469 C 17.988281 42.097656 18.253906 42.492188 18.492188 42.492188 C 18.53125 42.492188 18.589844 41.988281 18.609375 41.378906 C 18.660156 40.050781 18.828125 39.601562 19.582031 38.804688 C 20.105469 38.253906 20.988281 37.730469 21.601562 37.613281 C 22.21875 37.496094 22.050781 37.378906 21.253906 37.378906 C 19.496094 37.378906 18.324219 38.300781 18.039062 39.933594 C 17.949219 40.398438 17.921875 40.476562 17.910156 40.230469 C 17.902344 39.6875 18.175781 38.675781 18.5 38.054688 C 18.90625 37.308594 19.398438 36.828125 20.113281 36.472656 C 20.644531 36.214844 20.785156 36.1875 21.492188 36.214844 C 22.171875 36.253906 22.378906 36.304688 22.996094 36.628906 Z M 20.398438 37.867188 C 19.703125 38.261719 19.050781 38.941406 18.71875 39.621094 C 18.492188 40.082031 18.433594 40.347656 18.394531 41.164062 C 18.324219 42.453125 18.136719 42.234375 18.167969 40.917969 C 18.195312 39.265625 18.796875 38.242188 19.976562 37.789062 C 20.765625 37.484375 20.988281 37.523438 20.398438 37.867188 Z M 28.496094 38.113281 C 28.769531 38.195312 29.351562 38.519531 29.773438 38.824219 C 30.765625 39.53125 31.03125 39.640625 31.839844 39.640625 C 32.617188 39.640625 33.207031 39.492188 34.230469 39.058594 C 35.144531 38.675781 35.585938 38.597656 36.039062 38.753906 C 36.738281 38.980469 37.191406 39.867188 36.984375 40.621094 C 36.855469 41.085938 36.402344 41.65625 36.277344 41.527344 C 36.214844 41.46875 36.214844 41.351562 36.296875 41.222656 C 36.472656 40.886719 36.433594 40.070312 36.226562 39.71875 C 35.980469 39.285156 35.46875 39.03125 34.988281 39.089844 C 34.78125 39.109375 33.984375 39.382812 33.214844 39.699219 C 31.308594 40.476562 31.101562 40.476562 29.597656 39.648438 C 28.113281 38.824219 27.207031 38.527344 26.339844 38.578125 C 25.96875 38.597656 25.671875 38.597656 25.671875 38.578125 C 25.671875 38.527344 26.585938 38.132812 26.902344 38.054688 C 27.394531 37.9375 27.972656 37.957031 28.496094 38.113281 Z M 22.535156 39.5 C 21.128906 39.972656 20.941406 40.25 20.851562 41.949219 C 20.8125 42.886719 20.785156 43.050781 20.722656 42.738281 C 20.683594 42.519531 20.558594 42.019531 20.4375 41.617188 C 19.976562 39.953125 20.585938 39.253906 22.476562 39.253906 L 23.261719 39.253906 Z M 35.910156 39.628906 C 36.15625 39.875 36.195312 39.992188 36.195312 40.445312 C 36.195312 40.949219 36.011719 41.410156 35.804688 41.410156 C 35.753906 41.410156 35.644531 41.339844 35.566406 41.253906 C 35.390625 41.085938 35.351562 40.179688 35.507812 39.933594 C 35.566406 39.835938 35.605469 39.828125 35.605469 39.90625 C 35.605469 39.972656 35.65625 40.03125 35.703125 40.03125 C 35.863281 40.03125 35.8125 39.667969 35.644531 39.601562 C 35.222656 39.441406 34.5625 39.5625 33.460938 39.992188 C 32.832031 40.238281 32.164062 40.464844 31.96875 40.484375 C 31.691406 40.523438 31.730469 40.496094 32.164062 40.347656 C 32.460938 40.238281 33.128906 39.972656 33.640625 39.757812 C 34.847656 39.234375 35.480469 39.195312 35.910156 39.628906 Z M 28.152344 40.140625 C 29.539062 40.722656 29.921875 40.808594 30.886719 40.820312 C 31.78125 40.820312 32.578125 40.644531 33.472656 40.238281 C 33.847656 40.070312 34.171875 39.933594 34.191406 39.933594 C 34.308594 39.933594 32.863281 41.152344 32.5 41.371094 C 31.96875 41.675781 31.179688 41.773438 30.480469 41.605469 C 29.863281 41.460938 28.828125 40.976562 27.296875 40.132812 C 26.371094 39.621094 26.273438 39.539062 26.605469 39.589844 C 26.824219 39.628906 27.519531 39.875 28.152344 40.140625 Z M 23.765625 40.121094 C 22.613281 40.800781 21.894531 41.664062 21.582031 42.738281 L 21.402344 43.328125 L 21.324219 42.933594 C 21.136719 41.980469 21.5625 40.976562 22.347656 40.445312 C 22.789062 40.160156 23.644531 39.847656 24 39.835938 C 24.207031 39.835938 24.167969 39.886719 23.765625 40.121094 Z M 34.761719 40.398438 C 34.632812 40.929688 34.308594 41.585938 34.050781 41.832031 C 33.804688 42.070312 30.699219 43.710938 30.628906 43.644531 C 30.601562 43.613281 30.402344 42.34375 30.394531 42.148438 C 30.394531 42.089844 30.707031 42.050781 31.160156 42.050781 C 32.09375 42.050781 32.792969 41.753906 33.570312 41.035156 C 34.179688 40.464844 34.613281 40.132812 34.742188 40.132812 C 34.78125 40.132812 34.789062 40.25 34.761719 40.398438 Z M 34.535156 43.316406 C 34.476562 43.386719 34.160156 43.644531 33.828125 43.878906 C 33.136719 44.378906 33.234375 44.460938 34.199219 44.171875 C 35.339844 43.828125 35.195312 44.015625 33.453125 45.148438 C 32.746094 45.609375 32.164062 46.042969 32.164062 46.113281 C 32.164062 46.199219 32.214844 46.210938 32.339844 46.152344 C 32.675781 45.964844 34.0625 45.539062 34.296875 45.539062 C 34.445312 45.539062 34.523438 45.589844 34.503906 45.660156 C 34.445312 45.835938 33.414062 46.652344 32.578125 47.195312 C 31.574219 47.84375 31.515625 47.882812 31.574219 47.941406 C 31.601562 47.96875 32.132812 47.832031 32.753906 47.644531 C 33.363281 47.460938 33.914062 47.320312 33.972656 47.339844 C 34.101562 47.378906 33.265625 47.960938 32.675781 48.226562 C 31.9375 48.5625 30.726562 48.519531 29.371094 48.117188 C 28.691406 47.921875 28.082031 47.804688 27.71875 47.804688 C 25.496094 47.804688 22.179688 47.015625 20.566406 46.101562 C 19.828125 45.6875 19.023438 44.980469 18.601562 44.378906 L 18.375 44.054688 L 18.894531 44.398438 C 19.90625 45.078125 20.410156 45.34375 20.449219 45.226562 C 20.46875 45.167969 20.410156 45.078125 20.320312 45.03125 C 20.027344 44.863281 19.484375 44.359375 19.160156 43.9375 L 18.835938 43.523438 L 19.132812 43.710938 C 19.296875 43.820312 19.523438 43.96875 19.652344 44.046875 C 19.949219 44.234375 20.046875 44.125 19.808594 43.859375 C 19.671875 43.703125 19.808594 43.742188 20.417969 44.046875 C 21.253906 44.46875 22.355469 44.84375 23.359375 45.070312 C 23.773438 45.15625 24.796875 45.195312 26.753906 45.195312 L 29.558594 45.195312 L 30.472656 44.871094 C 30.972656 44.695312 31.683594 44.410156 32.046875 44.242188 C 32.65625 43.957031 34.523438 43.191406 34.613281 43.179688 C 34.632812 43.179688 34.59375 43.238281 34.535156 43.316406 Z M 22.191406 47.585938 C 23.722656 48.265625 24.855469 48.492188 27.945312 48.765625 C 28.523438 48.828125 29.371094 48.984375 29.863281 49.132812 L 30.746094 49.398438 L 30.71875 49.996094 C 30.660156 51.089844 30.472656 52.257812 30.226562 53.046875 C 29.949219 53.941406 29.519531 54.441406 28.957031 54.550781 C 28.011719 54.726562 26.152344 54.214844 24.402344 53.300781 C 23.792969 52.976562 23.261719 52.742188 23.234375 52.769531 C 23.164062 52.839844 23.863281 53.527344 24.492188 54.03125 C 24.71875 54.207031 24.648438 54.175781 24.265625 53.941406 C 23.960938 53.746094 23.675781 53.605469 23.636719 53.636719 C 23.5 53.773438 23.765625 53.96875 25.800781 55.230469 C 26.664062 55.769531 26.804688 55.929688 26.046875 55.496094 C 24.089844 54.402344 23.507812 54.148438 23.507812 54.375 C 23.507812 54.414062 23.949219 54.777344 24.492188 55.179688 C 25.9375 56.253906 25.808594 56.214844 23.902344 55.011719 C 23.09375 54.5 22.671875 54.316406 22.5625 54.421875 C 22.535156 54.441406 23.085938 55.042969 23.773438 55.730469 C 26.164062 58.132812 26.46875 59.035156 25.789062 61.722656 C 25.386719 63.316406 25.179688 64.769531 25.179688 66.058594 C 25.179688 67.25 25.417969 69.226562 25.574219 69.382812 C 25.683594 69.492188 25.90625 69.019531 26.015625 68.429688 C 26.054688 68.222656 26.113281 68.074219 26.132812 68.105469 C 26.195312 68.164062 25.96875 69.226562 25.847656 69.460938 C 25.800781 69.5625 25.703125 69.640625 25.632812 69.640625 C 25.378906 69.640625 24.296875 68.378906 23.96875 67.703125 C 23.675781 67.082031 23.65625 66.964844 23.65625 66 C 23.65625 65.429688 23.722656 64.554688 23.792969 64.050781 C 24.03125 62.546875 23.773438 61.5625 22.761719 60.136719 C 22.523438 59.804688 22.191406 59.234375 22.011719 58.859375 C 21.707031 58.230469 21.6875 58.113281 21.6875 57.148438 C 21.6875 56.132812 21.699219 56.09375 22.160156 55.011719 C 22.859375 53.351562 22.976562 52.011719 22.535156 50.851562 C 22.4375 50.605469 22.132812 50.035156 21.847656 49.582031 C 21.324219 48.726562 21.195312 48.375 21.078125 47.558594 C 21.03125 47.171875 21.039062 47.09375 21.15625 47.144531 C 21.234375 47.171875 21.699219 47.371094 22.191406 47.585938 Z M 33.539062 49.230469 C 33.539062 49.25 33.414062 49.761719 33.246094 50.351562 C 32.378906 53.539062 31.101562 55.542969 29.910156 55.582031 C 28.367188 55.644531 26.695312 55.132812 25.082031 54.097656 C 24.648438 53.8125 24.296875 53.566406 24.296875 53.546875 C 24.296875 53.527344 24.550781 53.636719 24.867188 53.792969 C 26.519531 54.628906 28.5625 55.011719 29.351562 54.640625 C 29.546875 54.539062 29.824219 54.324219 29.960938 54.148438 C 30.414062 53.546875 30.847656 51.847656 30.90625 50.429688 L 30.933594 49.75 L 31.378906 49.800781 C 31.957031 49.867188 32.664062 49.710938 33.070312 49.425781 C 33.394531 49.199219 33.539062 49.132812 33.539062 49.230469 Z M 35.359375 52.917969 C 35.863281 53.410156 36.195312 53.960938 36.195312 54.335938 C 36.195312 54.5 36.097656 54.628906 35.84375 54.777344 C 35.429688 55.023438 35.410156 55.023438 35.410156 54.835938 C 35.410156 54.757812 35.234375 54.304688 35.027344 53.832031 C 34.644531 52.976562 34.328125 52.03125 34.328125 51.746094 C 34.328125 51.667969 34.457031 51.796875 34.613281 52.042969 C 34.769531 52.277344 35.105469 52.671875 35.359375 52.917969 Z M 34.257812 53.804688 C 34.632812 54.226562 35.007812 54.90625 35.015625 55.152344 C 35.015625 55.269531 34.03125 55.996094 33.964844 55.929688 C 33.835938 55.808594 33.539062 54.316406 33.539062 53.792969 C 33.539062 53.105469 33.621094 52.898438 33.777344 53.183594 C 33.828125 53.28125 34.042969 53.558594 34.257812 53.804688 Z M 16.003906 54.609375 C 15.933594 55.820312 15.699219 56.832031 15.277344 57.738281 C 14.273438 59.882812 14.253906 60.589844 15.109375 63.414062 C 15.667969 65.261719 15.835938 66.128906 15.835938 67.328125 C 15.835938 69.304688 15.492188 69.964844 13.050781 72.640625 C 11.980469 73.820312 11.417969 74.585938 11.035156 75.421875 C 10.828125 75.886719 10.78125 76.132812 10.78125 76.820312 C 10.769531 77.28125 10.800781 77.8125 10.839844 78 L 10.917969 78.34375 L 10.671875 77.949219 C 10.238281 77.261719 10.003906 76.308594 10.050781 75.480469 C 10.09375 74.890625 10.171875 74.605469 10.476562 73.996094 C 10.800781 73.347656 11.074219 73.003906 12.441406 71.605469 C 14.703125 69.304688 15.1875 68.460938 15.316406 66.640625 C 15.394531 65.449219 15.175781 64.4375 14.507812 62.804688 C 13.828125 61.140625 13.644531 60.480469 13.644531 59.703125 C 13.632812 58.828125 13.839844 58.289062 14.753906 56.746094 C 15.5 55.496094 15.933594 54.460938 15.933594 53.941406 C 15.933594 53.8125 15.964844 53.703125 15.992188 53.703125 C 16.03125 53.703125 16.03125 54.117188 16.003906 54.609375 Z M 25.820312 56.507812 C 27.746094 57.777344 28.03125 58.082031 28.03125 58.878906 C 28.023438 59.449219 27.765625 60.109375 27.078125 61.296875 C 26.214844 62.792969 25.730469 64.621094 25.582031 66.984375 L 25.515625 68.113281 L 25.4375 66.953125 C 25.316406 65.28125 25.515625 63.570312 26.046875 61.671875 C 26.371094 60.480469 26.398438 59.214844 26.125 58.476562 C 25.839844 57.726562 25.316406 57 24.296875 55.929688 C 23.222656 54.796875 23.203125 54.785156 25.820312 56.507812 Z M 33.1875 55.613281 C 33.460938 56.203125 33.402344 56.332031 32.410156 57.355469 C 31.40625 58.386719 30.601562 59.539062 30.03125 60.757812 C 29.792969 61.257812 29.449219 61.761719 29.046875 62.203125 C 28.21875 63.097656 27.621094 64.023438 27.175781 65.054688 C 26.980469 65.519531 26.804688 65.882812 26.785156 65.863281 C 26.765625 65.84375 26.929688 65.320312 27.148438 64.710938 C 27.925781 62.578125 29.066406 60.707031 30.589844 59.09375 C 31.523438 58.101562 31.683594 57.777344 31.445312 57.34375 C 31.328125 57.109375 31.347656 57.070312 31.820312 56.605469 C 32.09375 56.332031 32.429688 55.886719 32.566406 55.613281 C 32.824219 55.050781 32.921875 55.0625 33.1875 55.613281 Z M 28.800781 56.949219 C 29.480469 57.175781 29.863281 57.246094 30.433594 57.246094 C 31.140625 57.246094 31.191406 57.253906 31.277344 57.492188 C 31.328125 57.628906 31.347656 57.816406 31.308594 57.90625 C 31.269531 58.003906 30.847656 58.503906 30.363281 59.015625 C 28.425781 61.070312 27.195312 63.414062 26.214844 66.933594 C 25.9375 67.917969 25.878906 68.046875 25.878906 67.703125 C 25.867188 67.160156 26.132812 65.222656 26.320312 64.476562 C 26.644531 63.167969 27.078125 62.054688 27.6875 60.984375 C 28.457031 59.625 28.5625 59.332031 28.503906 58.722656 C 28.425781 57.984375 28.132812 57.628906 26.625 56.5 C 25.859375 55.917969 25.191406 55.40625 25.132812 55.355469 C 25.082031 55.308594 25.683594 55.582031 26.480469 55.96875 C 27.277344 56.339844 28.316406 56.785156 28.800781 56.949219 Z M 36.039062 56.871094 C 35.113281 57.828125 33.972656 59.125 33.421875 59.863281 C 30.875 63.207031 30.246094 67.867188 31.535156 73.839844 C 31.867188 75.414062 32.585938 77.902344 33.097656 79.316406 C 33.5 80.417969 33.304688 80.171875 32.773438 78.90625 C 31.5625 76.03125 30.796875 73.515625 30.382812 71.054688 C 30.078125 69.234375 30.070312 66.5625 30.375 65.144531 C 30.964844 62.390625 32.234375 60.039062 34.152344 58.152344 C 34.96875 57.34375 36.441406 56.164062 36.640625 56.164062 C 36.6875 56.164062 36.421875 56.488281 36.039062 56.871094 Z M 36.796875 58.949219 C 36.511719 59.605469 36.234375 60.609375 36.039062 61.621094 C 35.8125 62.84375 35.890625 65.398438 36.1875 66.570312 C 36.71875 68.664062 37.621094 70.023438 38.949219 70.730469 C 39.316406 70.917969 39.539062 70.96875 40.230469 70.96875 C 41.3125 70.96875 41.921875 70.722656 42.855469 69.933594 L 43.554688 69.355469 L 43.210938 70.496094 C 42.847656 71.714844 42.757812 71.929688 42.234375 72.738281 C 41.773438 73.476562 41.527344 74.066406 40.878906 76.003906 C 40.5625 76.9375 40.277344 77.703125 40.25 77.703125 C 40.152344 77.703125 38.488281 75.175781 37.949219 74.214844 C 36.117188 70.96875 35.359375 68.539062 35.242188 65.507812 C 35.152344 63.226562 35.527344 61.378906 36.460938 59.378906 C 36.914062 58.417969 37.160156 58.101562 36.796875 58.949219 Z M 28.316406 65.753906 C 28.003906 67.082031 27.875 69.117188 28.011719 70.742188 C 28.289062 73.90625 28.929688 76.042969 30.964844 80.507812 C 31.503906 81.707031 32.171875 83.273438 32.4375 84 C 33.480469 86.792969 34.457031 90.460938 35.027344 93.828125 C 35.3125 95.507812 35.371094 96.304688 35.125 95.152344 C 34.878906 94.003906 33.6875 89.714844 32.929688 87.296875 C 32.292969 85.238281 31.355469 82.820312 30.316406 80.5 C 29.242188 78.128906 28.769531 76.929688 28.386719 75.589844 C 27.363281 71.949219 27.285156 68.546875 28.191406 65.703125 C 28.328125 65.261719 28.457031 64.917969 28.476562 64.9375 C 28.496094 64.957031 28.425781 65.320312 28.316406 65.753906 Z M 33.441406 67.601562 C 33.441406 67.730469 33.53125 68.183594 33.640625 68.605469 C 33.835938 69.363281 33.835938 69.375 33.640625 70.023438 C 33.414062 70.789062 33.175781 72.03125 33 73.417969 L 32.871094 74.410156 L 32.863281 73.132812 C 32.851562 71.015625 33.167969 67.378906 33.363281 67.378906 C 33.402344 67.378906 33.441406 67.484375 33.441406 67.601562 Z M 26.320312 76.789062 C 26.65625 77.773438 26.664062 77.804688 26.5 78.117188 C 26.253906 78.589844 25.476562 79.730469 24.886719 80.460938 C 24.03125 81.53125 21.785156 83.765625 20.84375 84.492188 C 20.488281 84.757812 20.539062 84.679688 21.109375 84.089844 C 23.417969 81.679688 24.925781 79.070312 25.621094 76.296875 C 25.839844 75.460938 25.886719 75.34375 25.9375 75.589844 C 25.957031 75.699219 26.132812 76.238281 26.320312 76.789062 Z M 40.476562 81.011719 C 43.996094 86.015625 45.953125 91.75 46.269531 97.96875 L 46.328125 99 L 46.042969 97.417969 C 44.863281 90.765625 42.972656 85.730469 39.394531 79.710938 C 39.078125 79.179688 39.796875 80.035156 40.476562 81.011719 Z M 28.847656 82.121094 L 29.3125 82.859375 L 29.046875 83.300781 C 27.964844 85.171875 24.746094 89.480469 23.054688 91.328125 C 22.652344 91.78125 22.554688 91.929688 23.96875 89.902344 C 25.75 87.363281 26.921875 85.191406 27.382812 83.578125 C 27.519531 83.09375 27.6875 82.199219 27.757812 81.582031 L 27.875 80.460938 L 28.132812 80.929688 C 28.269531 81.1875 28.59375 81.71875 28.847656 82.121094 Z M 31.230469 87.148438 C 31.542969 87.828125 31.800781 88.496094 31.789062 88.632812 C 31.769531 89.292969 29.242188 96.226562 29.214844 95.683594 C 29.214844 95.644531 29.320312 95.332031 29.449219 94.988281 C 29.773438 94.132812 30.355469 91.808594 30.539062 90.640625 C 30.71875 89.566406 30.746094 87.15625 30.609375 86.28125 C 30.5625 85.996094 30.550781 85.789062 30.589844 85.839844 C 30.628906 85.878906 30.925781 86.46875 31.230469 87.148438 Z M 31.230469 87.148438 "/>
<path style=" stroke:none;fill-rule:nonzero;fill:rgb(0%,0%,0%);fill-opacity:1;" d="M 17.300781 45.335938 C 15.382812 46.78125 14.695312 48.285156 15.089844 50.164062 C 15.234375 50.863281 15.363281 51.15625 16.800781 53.929688 C 17.332031 54.945312 17.339844 55.703125 16.878906 57.550781 C 16.308594 59.832031 16.367188 60.128906 17.804688 62.65625 C 18.796875 64.398438 19.464844 65.863281 19.789062 67.050781 C 19.957031 67.652344 19.996094 68.105469 20.007812 69.148438 L 20.007812 70.476562 L 19.503906 71.902344 C 18.847656 73.78125 18.746094 74.28125 18.945312 75.019531 C 19.09375 75.570312 19.152344 75.707031 19.210938 75.628906 C 19.257812 75.570312 20.292969 72.738281 20.695312 71.558594 C 21.582031 68.96875 21.5625 67.140625 20.617188 65.164062 C 20.222656 64.355469 19.730469 63.667969 18.648438 62.410156 C 17.65625 61.257812 17.398438 60.699219 17.332031 59.597656 C 17.28125 58.644531 17.339844 58.40625 17.929688 57.097656 C 18.296875 56.292969 18.34375 56.125 18.375 55.25 C 18.414062 54.394531 18.382812 54.207031 18.148438 53.527344 C 18 53.113281 17.585938 52.238281 17.234375 51.601562 C 16.878906 50.949219 16.503906 50.203125 16.40625 49.929688 C 16.171875 49.238281 16.171875 48.050781 16.417969 47.410156 C 16.613281 46.886719 17.390625 45.777344 17.890625 45.304688 C 18.15625 45.050781 18.214844 44.851562 18.011719 44.851562 C 17.96875 44.851562 17.644531 45.070312 17.300781 45.335938 Z M 16.878906 46.171875 C 16.277344 46.90625 16.003906 47.664062 15.992188 48.589844 C 15.992188 49.574219 16.191406 50.171875 16.988281 51.589844 C 17.84375 53.132812 18.195312 54.128906 18.195312 55.03125 C 18.1875 55.75 18.070312 56.183594 17.410156 57.785156 C 16.988281 58.800781 16.957031 59.714844 17.292969 60.6875 C 17.539062 61.398438 17.695312 61.621094 18.835938 62.980469 C 20.566406 65.035156 21.265625 66.835938 21.109375 68.804688 C 21.070312 69.246094 20.980469 69.835938 20.902344 70.132812 C 20.644531 71.113281 19.25 74.949219 19.152344 74.949219 C 18.945312 74.949219 19.160156 73.535156 19.523438 72.492188 C 20.183594 70.621094 20.261719 70.269531 20.261719 69.136719 C 20.261719 67.230469 19.621094 65.371094 17.960938 62.46875 C 17.066406 60.914062 16.722656 60.050781 16.722656 59.398438 C 16.722656 59.261719 16.878906 58.523438 17.066406 57.777344 C 17.449219 56.242188 17.507812 55.238281 17.261719 54.433594 C 17.183594 54.167969 16.847656 53.488281 16.523438 52.917969 C 15.15625 50.527344 14.871094 48.867188 15.609375 47.46875 C 15.835938 47.046875 17.105469 45.640625 17.261719 45.640625 C 17.292969 45.640625 17.113281 45.875 16.878906 46.171875 Z M 16.878906 46.171875 "/>
<path style=" stroke:none;fill-rule:nonzero;fill:rgb(0%,0%,0%);fill-opacity:1;" d="M 18.070312 46.21875 C 17.171875 47.164062 16.878906 47.824219 16.878906 48.835938 C 16.878906 49.839844 17.046875 50.390625 17.910156 52.238281 C 18.984375 54.53125 19.09375 55.542969 18.433594 57.019531 C 17.902344 58.21875 17.929688 59.449219 18.519531 60.382812 C 18.699219 60.648438 19.21875 61.277344 19.703125 61.769531 C 21.550781 63.699219 22.238281 65.242188 22.238281 67.40625 C 22.238281 68.410156 21.953125 69.835938 21.5 71.105469 C 21.304688 71.644531 21.296875 71.605469 21.621094 71.605469 C 22.050781 71.605469 22.613281 71.417969 23.65625 70.917969 C 25.132812 70.21875 25.09375 70.308594 24.355469 69.460938 C 23.644531 68.65625 23.09375 67.683594 22.917969 66.90625 C 22.839844 66.550781 22.820312 66.019531 22.867188 65.171875 C 22.976562 63.234375 22.996094 63.253906 20.734375 61.121094 C 20.332031 60.746094 19.996094 60.316406 19.808594 59.941406 C 19.5625 59.429688 19.523438 59.253906 19.523438 58.476562 C 19.523438 57.71875 19.574219 57.453125 19.867188 56.605469 C 20.183594 55.703125 20.214844 55.535156 20.214844 54.492188 L 20.214844 53.359375 L 19.542969 51.90625 C 19.179688 51.097656 18.804688 50.152344 18.726562 49.789062 C 18.441406 48.570312 18.679688 47.378906 19.386719 46.496094 C 19.554688 46.289062 19.671875 46.101562 19.652344 46.082031 C 19.535156 45.964844 18.867188 45.539062 18.796875 45.539062 C 18.746094 45.539062 18.421875 45.847656 18.070312 46.21875 Z M 19.160156 45.984375 L 19.378906 46.140625 L 19.082031 46.535156 C 18.628906 47.164062 18.394531 47.910156 18.394531 48.699219 C 18.394531 49.644531 18.601562 50.371094 19.277344 51.855469 C 19.59375 52.542969 19.898438 53.332031 19.96875 53.617188 C 20.144531 54.363281 20.035156 55.355469 19.621094 56.65625 C 19.296875 57.667969 19.269531 57.875 19.296875 58.621094 C 19.367188 60.050781 19.582031 60.394531 21.757812 62.410156 C 22.644531 63.226562 22.75 63.570312 22.664062 65.320312 C 22.601562 66.421875 22.621094 66.738281 22.769531 67.230469 C 22.96875 67.929688 23.429688 68.722656 24.117188 69.539062 C 24.394531 69.875 24.601562 70.152344 24.582031 70.171875 C 24.285156 70.445312 21.777344 71.488281 21.679688 71.378906 C 21.660156 71.371094 21.707031 71.171875 21.785156 70.957031 C 22.0625 70.152344 22.417969 68.585938 22.484375 67.917969 C 22.632812 66.285156 21.984375 64.179688 20.910156 62.804688 C 20.746094 62.585938 20.203125 61.976562 19.710938 61.457031 C 18.609375 60.285156 18.363281 59.824219 18.316406 58.808594 C 18.285156 58.160156 18.316406 57.964844 18.570312 57.335938 C 19.335938 55.417969 19.269531 54.582031 18.148438 52.230469 C 17.390625 50.625 17.234375 50.203125 17.125 49.417969 C 17.027344 48.71875 17.125 48.050781 17.417969 47.429688 C 17.644531 46.957031 18.640625 45.835938 18.828125 45.835938 C 18.886719 45.835938 19.03125 45.90625 19.160156 45.984375 Z M 19.160156 45.984375 "/>
<path style=" stroke:none;fill-rule:nonzero;fill:rgb(0%,0%,0%);fill-opacity:1;" d="M 19.664062 48.109375 C 19.59375 48.34375 19.535156 48.914062 19.535156 49.378906 C 19.535156 50.054688 19.601562 50.390625 19.859375 51.148438 C 20.359375 52.644531 20.84375 54.402344 20.902344 54.984375 C 20.960938 55.523438 20.851562 56.273438 20.507812 57.53125 C 20.292969 58.347656 20.339844 59.203125 20.644531 59.84375 C 20.773438 60.097656 21.277344 60.726562 21.757812 61.238281 C 22.25 61.742188 22.800781 62.4375 22.988281 62.773438 C 23.320312 63.382812 23.320312 63.382812 23.261719 63 C 23.171875 62.5 22.9375 62.035156 22.101562 60.785156 C 21.234375 59.488281 21.050781 59.046875 20.980469 58.179688 C 20.929688 57.539062 20.96875 57.375 21.492188 55.769531 C 22.023438 54.15625 22.050781 54 22.003906 53.3125 C 21.945312 52.355469 21.796875 51.945312 20.792969 49.929688 C 20.339844 49.011719 19.96875 48.1875 19.96875 48.109375 C 19.96875 48.019531 19.929688 47.890625 19.878906 47.8125 C 19.808594 47.703125 19.75 47.785156 19.664062 48.109375 Z M 21.265625 51.363281 C 21.933594 52.949219 21.964844 53.675781 21.414062 55.316406 L 21.097656 56.261719 L 21.097656 55.347656 C 21.089844 54.5625 21.03125 54.234375 20.636719 52.867188 C 20.378906 52.003906 20.105469 51.097656 20.015625 50.851562 C 19.761719 50.152344 19.664062 49.476562 19.730469 48.964844 L 19.800781 48.480469 L 20.390625 49.59375 C 20.714844 50.203125 21.109375 51 21.265625 51.363281 Z M 21.265625 51.363281 "/>
<path style=" stroke:none;fill-rule:nonzero;fill:rgb(0%,0%,0%);fill-opacity:1;" d="M 25.238281 71.171875 C 24.207031 71.703125 23.183594 72.089844 22.042969 72.382812 L 21 72.648438 L 20.765625 73.308594 C 20.636719 73.671875 20.558594 74.007812 20.597656 74.035156 C 20.714844 74.152344 21.519531 73.808594 23.753906 72.6875 L 26.015625 71.558594 L 26.046875 71.183594 C 26.066406 70.988281 26.046875 70.820312 25.996094 70.820312 C 25.957031 70.828125 25.613281 70.988281 25.238281 71.171875 Z M 25.867188 71.300781 C 25.867188 71.480469 21 73.847656 20.882812 73.742188 C 20.832031 73.683594 21.070312 73.042969 21.1875 72.925781 C 21.246094 72.867188 21.628906 72.738281 22.03125 72.640625 C 22.839844 72.453125 24.472656 71.84375 25.179688 71.460938 C 25.652344 71.203125 25.867188 71.152344 25.867188 71.300781 Z M 25.867188 71.300781 "/>
<path style=" stroke:none;fill-rule:nonzero;fill:rgb(0%,0%,0%);fill-opacity:1;" d="M 24.492188 73.535156 C 24.03125 73.722656 22.867188 74.125 21.90625 74.4375 L 20.164062 74.988281 L 19.574219 76.03125 C 19.25 76.601562 18.914062 77.164062 18.828125 77.28125 C 18.6875 77.480469 18.6875 77.507812 18.804688 77.507812 C 19.03125 77.507812 21.019531 76.503906 21.945312 75.925781 C 23.292969 75.078125 25.710938 73.179688 25.425781 73.191406 C 25.378906 73.191406 24.953125 73.347656 24.492188 73.535156 Z M 24.34375 73.957031 C 24.128906 74.152344 22.417969 75.34375 21.679688 75.816406 C 20.792969 76.367188 19.238281 77.171875 19.289062 77.046875 C 19.308594 77.007812 19.542969 76.5625 19.820312 76.070312 L 20.300781 75.175781 L 22.277344 74.539062 C 24.363281 73.847656 24.492188 73.820312 24.34375 73.957031 Z M 24.34375 73.957031 "/>
<path style=" stroke:none;fill-rule:nonzero;fill:rgb(0%,0%,0%);fill-opacity:1;" d="M 42.5625 76.296875 C 42.226562 78.011719 42.128906 78.765625 42.039062 80.074219 L 41.96875 81.117188 L 42.34375 81.726562 C 42.601562 82.140625 42.746094 82.296875 42.796875 82.210938 C 42.945312 81.945312 43.179688 79.476562 43.179688 78.214844 C 43.179688 76.898438 43.003906 74.949219 42.894531 74.949219 C 42.855469 74.949219 42.707031 75.5625 42.5625 76.296875 Z M 42.972656 77.929688 C 42.984375 78.953125 42.816406 81.070312 42.699219 81.519531 L 42.621094 81.785156 L 42.414062 81.375 C 42.207031 80.980469 42.207031 80.902344 42.296875 79.703125 C 42.355469 79.011719 42.480469 77.949219 42.589844 77.339844 C 42.699219 76.730469 42.796875 76.199219 42.796875 76.160156 C 42.847656 75.875 42.972656 77.132812 42.972656 77.929688 Z M 42.972656 77.929688 "/>
<path style=" stroke:none;fill-rule:nonzero;fill:rgb(0%,0%,0%);fill-opacity:1;" d="M 56.695312 41.144531 C 51.519531 46.398438 48.511719 50.054688 46.800781 53.164062 C 45.679688 55.199219 44.882812 57.253906 44.605469 58.789062 C 44.4375 59.765625 44.398438 61.769531 44.558594 61.769531 C 44.605469 61.769531 44.675781 61.671875 44.695312 61.542969 C 44.714844 61.425781 44.804688 60.945312 44.890625 60.480469 C 45.109375 59.28125 45.460938 58.269531 46.179688 56.804688 C 47.734375 53.597656 50.28125 50.410156 55.238281 45.492188 L 58.296875 42.441406 L 58.347656 41.460938 C 58.386719 40.621094 58.4375 40.367188 58.703125 39.765625 C 59.046875 39.011719 59.054688 38.949219 58.929688 38.949219 C 58.886719 38.949219 57.875 39.933594 56.695312 41.144531 Z M 58.328125 40.140625 C 58.210938 40.4375 58.101562 41.007812 58.0625 41.539062 L 58.003906 42.441406 L 55.789062 44.605469 C 50.507812 49.761719 47.597656 53.371094 45.925781 56.8125 C 45.550781 57.570312 45.128906 58.621094 44.980469 59.152344 C 44.832031 59.683594 44.695312 60.070312 44.675781 60.011719 C 44.605469 59.792969 44.980469 58.023438 45.304688 57.050781 C 45.765625 55.644531 47.132812 52.90625 48.050781 51.539062 C 49.238281 49.769531 50.960938 47.625 52.988281 45.375 C 53.988281 44.253906 58.425781 39.640625 58.484375 39.640625 C 58.503906 39.640625 58.4375 39.867188 58.328125 40.140625 Z M 58.328125 40.140625 "/>
<path style=" stroke:none;fill-rule:nonzero;fill:rgb(0%,0%,0%);fill-opacity:1;" d="M 64.96875 42.414062 C 64.949219 42.480469 64.78125 43.003906 64.59375 43.574219 C 64.40625 44.144531 62.746094 49.160156 60.894531 54.71875 C 59.046875 60.285156 57.539062 64.917969 57.539062 65.027344 C 57.539062 65.558594 57.847656 64.96875 58.644531 62.890625 C 59.125 61.652344 60.089844 59.113281 60.804688 57.246094 C 61.515625 55.378906 62.558594 52.632812 63.117188 51.148438 C 63.6875 49.664062 64.230469 48.214844 64.328125 47.949219 L 64.515625 47.460938 L 64.515625 47.902344 C 64.730469 59.96875 64.828125 65.164062 64.867188 65.195312 C 65.027344 65.351562 65.09375 64.847656 65.152344 62.980469 C 65.222656 60.582031 65.695312 47.292969 65.703125 47.214844 C 65.714844 47.164062 65.890625 47.65625 67.691406 52.574219 C 68.578125 55.023438 71.5 62.863281 72.097656 64.398438 C 72.394531 65.171875 72.589844 65.417969 72.589844 65.035156 C 72.589844 64.949219 71.921875 62.832031 71.105469 60.34375 C 67.398438 49.011719 65.390625 42.914062 65.292969 42.660156 C 65.164062 42.335938 65.035156 42.234375 64.96875 42.414062 Z M 68.015625 51.640625 C 69.570312 56.371094 70.867188 60.316406 70.886719 60.394531 C 71.054688 61.101562 67.582031 51.757812 66.226562 47.851562 C 65.921875 46.988281 65.644531 46.238281 65.605469 46.199219 C 65.507812 46.09375 65.4375 47.480469 65.261719 53.214844 C 65.015625 60.894531 64.96875 61.171875 64.886719 55.476562 C 64.800781 49.257812 64.710938 46.515625 64.613281 46.574219 C 64.574219 46.601562 64.464844 46.859375 64.367188 47.144531 C 63.953125 48.402344 59.132812 61.003906 59.125 60.847656 C 59.105469 60.648438 65.066406 42.894531 65.125 42.964844 C 65.164062 43.003906 66.460938 46.90625 68.015625 51.640625 Z M 68.015625 51.640625 "/>
<path style=" stroke:none;fill-rule:nonzero;fill:rgb(0%,0%,0%);fill-opacity:1;" d="M 86.332031 53.085938 C 84.355469 59.027344 82.664062 64.160156 82.574219 64.503906 C 82.40625 65.09375 82.425781 65.351562 82.621094 65.152344 C 82.730469 65.046875 85.929688 56.695312 88.335938 50.242188 C 88.886719 48.738281 89.359375 47.527344 89.371094 47.539062 C 89.390625 47.546875 89.4375 50.300781 89.5 53.65625 C 89.664062 63.550781 89.714844 65.214844 89.851562 65.214844 C 89.980469 65.214844 89.988281 64.886719 90.195312 58.820312 C 90.253906 57.226562 90.363281 53.96875 90.441406 51.601562 C 90.519531 49.21875 90.601562 47.261719 90.621094 47.242188 C 90.640625 47.222656 90.777344 47.527344 90.914062 47.921875 C 92.851562 53.351562 97.210938 65.074219 97.328125 65.195312 C 97.355469 65.222656 97.417969 65.203125 97.476562 65.152344 C 97.523438 65.105469 97.230469 64.042969 96.6875 62.410156 C 96.207031 60.945312 95.171875 57.757812 94.378906 55.328125 C 91.691406 47.066406 90.089844 42.296875 90 42.296875 C 89.949219 42.296875 88.296875 47.152344 86.332031 53.085938 Z M 92.292969 49.691406 C 95.566406 59.675781 95.714844 60.117188 95.675781 60.167969 C 95.65625 60.1875 95.339844 59.390625 94.96875 58.40625 C 94.257812 56.480469 91.644531 49.277344 90.964844 47.410156 C 90.746094 46.789062 90.53125 46.238281 90.492188 46.199219 C 90.414062 46.113281 90.34375 47.585938 90.1875 52.378906 C 90.019531 57.816406 89.921875 60.207031 89.882812 60.253906 C 89.832031 60.304688 89.703125 53.054688 89.703125 50.074219 C 89.703125 47.929688 89.617188 46.523438 89.5 46.523438 C 89.449219 46.523438 89.410156 46.574219 89.410156 46.621094 C 89.410156 46.722656 87.765625 51.117188 85.328125 57.570312 C 84.640625 59.390625 84.050781 60.875 84.03125 60.847656 C 83.980469 60.796875 89.929688 42.886719 90 42.886719 C 90.03125 42.886719 91.0625 45.953125 92.292969 49.691406 Z M 92.292969 49.691406 "/>
<path style=" stroke:none;fill-rule:nonzero;fill:rgb(0%,0%,0%);fill-opacity:1;" d="M 57.335938 43.652344 C 56.871094 44.125 56.113281 44.929688 55.664062 45.441406 C 55.199219 45.953125 53.675781 47.636719 52.269531 49.179688 C 48.1875 53.664062 48.011719 53.882812 47.144531 55.621094 C 46.050781 57.796875 44.597656 61.957031 44.863281 62.125 C 45.226562 62.351562 48.363281 59.183594 51.363281 55.574219 C 54.375 51.945312 55.179688 51.039062 57.875 48.324219 L 60.03125 46.140625 L 59.683594 45.71875 C 59.027344 44.902344 58.722656 44.378906 58.464844 43.613281 C 58.328125 43.179688 58.199219 42.828125 58.191406 42.816406 C 58.179688 42.804688 57.796875 43.179688 57.335938 43.652344 Z M 58.78125 44.890625 C 58.929688 45.109375 59.195312 45.472656 59.371094 45.699219 L 59.695312 46.101562 L 58.152344 47.664062 C 55.484375 50.371094 53.214844 52.929688 50.527344 56.214844 C 48.964844 58.121094 47.480469 59.722656 46.289062 60.777344 C 45.667969 61.328125 45.148438 61.769531 45.117188 61.769531 C 44.929688 61.769531 46.316406 57.867188 47.066406 56.292969 C 48.070312 54.167969 48.394531 53.746094 52.621094 49.132812 C 54.058594 47.558594 55.582031 45.875 56.015625 45.394531 C 56.449219 44.902344 57.089844 44.214844 57.433594 43.847656 L 58.0625 43.179688 L 58.289062 43.828125 C 58.417969 44.195312 58.632812 44.664062 58.78125 44.890625 Z M 58.78125 44.890625 "/>
<path style=" stroke:none;fill-rule:nonzero;fill:rgb(0%,0%,0%);fill-opacity:1;" d="M 57.019531 65.960938 C 56.941406 66.050781 57.195312 66.550781 57.570312 67.011719 C 58.296875 67.9375 60.5625 69.246094 62.113281 69.628906 C 65.785156 70.542969 69.707031 69.746094 71.96875 67.644531 C 72.621094 67.03125 73.238281 66.167969 73.132812 66 C 73.0625 65.890625 57.128906 65.851562 57.019531 65.960938 Z M 72.128906 66.1875 L 72.894531 66.195312 L 72.609375 66.621094 C 71.558594 68.132812 68.96875 69.480469 66.738281 69.679688 L 66.050781 69.738281 L 66.933594 69.492188 C 67.425781 69.355469 68.332031 68.988281 68.949219 68.683594 C 69.894531 68.214844 70.210938 67.996094 70.847656 67.367188 C 71.792969 66.441406 71.8125 66.296875 71.027344 66.296875 L 70.457031 66.296875 L 69.953125 66.875 C 68.980469 67.988281 67.632812 68.824219 66.03125 69.304688 C 65.292969 69.53125 64.976562 69.570312 63.886719 69.582031 C 62.734375 69.582031 62.519531 69.550781 61.769531 69.304688 C 60.089844 68.746094 58.296875 67.632812 57.660156 66.757812 C 57.492188 66.511719 57.34375 66.285156 57.34375 66.253906 C 57.34375 66.207031 69.847656 66.117188 70.96875 66.15625 C 71.183594 66.167969 71.703125 66.175781 72.128906 66.1875 Z M 71.113281 66.785156 C 70.710938 67.355469 69.867188 67.988281 68.804688 68.507812 C 67.5625 69.109375 66.933594 69.324219 67.828125 68.824219 C 68.703125 68.339844 69.355469 67.839844 69.945312 67.199219 C 70.417969 66.679688 70.632812 66.5625 71.195312 66.5 C 71.28125 66.492188 71.253906 66.589844 71.113281 66.785156 Z M 71.113281 66.785156 "/>
<path style=" stroke:none;fill-rule:nonzero;fill:rgb(0%,0%,0%);fill-opacity:1;" d="M 81.933594 66.03125 C 81.933594 66.253906 82.484375 67.023438 82.976562 67.476562 C 83.664062 68.113281 84.277344 68.519531 85.308594 69 C 86.488281 69.5625 87.414062 69.796875 89.035156 69.933594 C 92.203125 70.21875 94.996094 69.375 96.972656 67.523438 C 97.515625 67.023438 98.066406 66.265625 98.066406 66.03125 C 98.066406 65.921875 96.570312 65.902344 90 65.902344 C 83.429688 65.902344 81.933594 65.921875 81.933594 66.03125 Z M 97.769531 66.214844 C 97.769531 66.375 96.886719 67.355469 96.335938 67.800781 C 95.195312 68.722656 93.128906 69.550781 91.621094 69.679688 L 90.933594 69.738281 L 91.820312 69.492188 C 92.3125 69.355469 93.207031 69 93.816406 68.695312 C 94.742188 68.242188 95.066406 68.015625 95.714844 67.398438 C 96.660156 66.472656 96.699219 66.296875 95.96875 66.296875 L 95.449219 66.296875 L 94.464844 67.257812 C 93.640625 68.066406 93.335938 68.300781 92.546875 68.683594 C 91.179688 69.363281 90.316406 69.570312 88.769531 69.582031 C 87.621094 69.582031 87.414062 69.5625 86.65625 69.304688 C 84.835938 68.695312 83.292969 67.703125 82.503906 66.640625 L 82.21875 66.246094 L 88.542969 66.195312 C 96.835938 66.128906 97.769531 66.136719 97.769531 66.214844 Z M 96.195312 66.582031 C 96.195312 66.628906 95.882812 66.964844 95.5 67.316406 C 94.976562 67.800781 94.515625 68.105469 93.621094 68.558594 C 92.351562 69.1875 91.800781 69.363281 92.832031 68.8125 C 93.414062 68.5 94.820312 67.425781 94.820312 67.289062 C 94.820312 67.257812 94.976562 67.0625 95.171875 66.855469 C 95.4375 66.570312 95.597656 66.492188 95.863281 66.492188 C 96.050781 66.492188 96.195312 66.53125 96.195312 66.582031 Z M 96.195312 66.582031 "/>
<path style=" stroke:none;fill-rule:nonzero;fill:rgb(0%,0%,0%);fill-opacity:1;" d="M 103.316406 72.492188 C 101.832031 72.699219 100.820312 73.179688 99.875 74.113281 C 98.753906 75.226562 98.28125 76.535156 98.398438 78.175781 C 98.546875 80.195312 99.472656 81.550781 101.273438 82.386719 C 102.621094 83.015625 104.714844 83.171875 106.277344 82.769531 C 108.945312 82.082031 110.488281 79.949219 110.332031 77.164062 C 110.164062 74.3125 108.207031 72.601562 104.910156 72.453125 C 104.359375 72.421875 103.644531 72.441406 103.316406 72.492188 Z M 105.777344 73.800781 C 107.171875 74.4375 107.773438 75.777344 107.675781 78 C 107.644531 78.621094 107.558594 79.347656 107.46875 79.621094 C 107.105469 80.792969 106.347656 81.519531 105.195312 81.804688 C 103.613281 82.199219 101.988281 81.335938 101.417969 79.808594 C 100.730469 77.980469 100.988281 75.582031 101.988281 74.4375 C 102.785156 73.523438 104.539062 73.230469 105.777344 73.800781 Z M 105.777344 73.800781 "/>
<path style=" stroke:none;fill-rule:nonzero;fill:rgb(0%,0%,0%);fill-opacity:1;" d="M 33.738281 72.539062 C 33.738281 72.570312 34.152344 73.644531 34.664062 74.929688 C 36.441406 79.425781 37.355469 82.75 37.929688 86.851562 C 38.171875 88.613281 38.222656 92.753906 38.015625 94.523438 C 37.929688 95.3125 37.839844 96.167969 37.808594 96.441406 L 37.761719 96.933594 L 38.558594 97.425781 C 38.988281 97.691406 39.414062 98.015625 39.492188 98.125 C 39.5625 98.242188 39.835938 98.460938 40.09375 98.605469 C 40.445312 98.8125 40.5625 98.84375 40.621094 98.746094 C 40.898438 98.300781 40.9375 93.492188 40.683594 91.476562 C 40.601562 90.796875 40.503906 90 40.476562 89.703125 C 40.4375 89.195312 40.445312 89.214844 40.769531 90.195312 C 41.695312 92.929688 42.195312 95.734375 42.355469 98.882812 C 42.402344 99.867188 42.453125 100.328125 42.53125 100.296875 C 42.699219 100.238281 42.765625 99.441406 42.777344 97.378906 C 42.785156 94.542969 42.550781 92.804688 41.753906 90.039062 C 41.253906 88.289062 40.839844 87.167969 39.796875 84.738281 C 38.8125 82.4375 36.972656 78.738281 36.804688 78.738281 C 36.738281 78.738281 36.453125 78.167969 36.148438 77.410156 C 35.675781 76.210938 35.320312 75.382812 34.328125 73.199219 C 34.152344 72.816406 33.945312 72.492188 33.875 72.492188 C 33.796875 72.492188 33.738281 72.511719 33.738281 72.539062 Z M 36.433594 78.71875 C 38.054688 82.90625 38.949219 86.988281 39.246094 91.523438 C 39.355469 93.246094 39.382812 96.785156 39.285156 97.257812 L 39.226562 97.554688 L 38.617188 97.191406 C 37.917969 96.757812 37.957031 96.953125 38.214844 94.867188 C 38.429688 93.078125 38.46875 89.8125 38.28125 88.03125 C 37.949219 84.867188 37.238281 81.519531 36.296875 78.746094 C 35.980469 77.804688 35.980469 77.804688 36.039062 77.804688 C 36.058594 77.804688 36.234375 78.214844 36.433594 78.71875 Z M 38.625 82.664062 C 41.4375 88.703125 42.628906 93 42.570312 96.984375 C 42.570312 97.664062 42.539062 98.054688 42.53125 97.867188 C 42.226562 94.621094 41.765625 92.410156 40.761719 89.4375 C 40.140625 87.601562 39.945312 87.109375 39.867188 87.175781 C 39.835938 87.207031 39.90625 87.757812 40.023438 88.398438 C 40.554688 91.457031 40.75 94.191406 40.613281 96.765625 C 40.5625 97.664062 40.496094 98.417969 40.476562 98.449219 C 40.445312 98.480469 40.257812 98.410156 40.0625 98.3125 L 39.71875 98.125 L 39.777344 97.277344 C 40.003906 94.023438 39.914062 91.179688 39.480469 88.230469 C 39.097656 85.582031 38.753906 84.097656 37.917969 81.648438 C 37.730469 81.078125 37.574219 80.597656 37.574219 80.566406 C 37.582031 80.460938 37.886719 81.078125 38.625 82.664062 Z M 38.460938 84.148438 C 39.375 87.640625 39.847656 92.171875 39.667969 95.605469 C 39.589844 96.992188 39.589844 96.945312 39.53125 93.984375 C 39.441406 89.84375 39.089844 86.929688 38.320312 84 C 38.125 83.273438 37.949219 82.5625 37.917969 82.425781 L 37.859375 82.179688 L 37.96875 82.425781 C 38.027344 82.5625 38.253906 83.332031 38.460938 84.148438 Z M 38.460938 84.148438 "/>
<path style=" stroke:none;fill-rule:nonzero;fill:rgb(0%,0%,0%);fill-opacity:1;" d="M 46.269531 72.738281 C 46.238281 72.804688 46.230469 72.992188 46.25 73.152344 C 46.269531 73.355469 46.335938 73.4375 46.523438 73.457031 C 47.222656 73.542969 47.378906 73.664062 47.703125 74.339844 C 47.980469 74.910156 49.140625 77.566406 50.773438 81.34375 C 51.472656 82.988281 51.414062 82.917969 52.230469 82.917969 C 52.828125 82.917969 52.929688 82.886719 53.054688 82.691406 C 53.132812 82.574219 53.890625 80.863281 54.738281 78.886719 C 55.582031 76.90625 56.460938 74.921875 56.683594 74.460938 C 57.089844 73.644531 57.109375 73.621094 57.539062 73.515625 C 57.964844 73.417969 57.984375 73.398438 58.011719 73.003906 L 58.042969 72.601562 L 54.097656 72.601562 L 54.097656 73.042969 C 54.097656 73.445312 54.117188 73.476562 54.375 73.476562 C 54.519531 73.476562 54.804688 73.503906 55.011719 73.535156 C 55.316406 73.59375 55.378906 73.644531 55.378906 73.839844 C 55.378906 74.035156 53.96875 77.488281 53.113281 79.417969 L 52.898438 79.886719 L 52.652344 79.367188 C 52.160156 78.296875 50.371094 74.09375 50.3125 73.847656 C 50.242188 73.601562 50.261719 73.582031 50.722656 73.523438 C 50.980469 73.496094 51.265625 73.457031 51.34375 73.445312 C 51.441406 73.425781 51.492188 73.308594 51.492188 73.03125 L 51.492188 72.640625 L 48.90625 72.628906 C 46.847656 72.609375 46.308594 72.640625 46.269531 72.738281 Z M 46.269531 72.738281 "/>
<path style=" stroke:none;fill-rule:nonzero;fill:rgb(0%,0%,0%);fill-opacity:1;" d="M 60.019531 73.03125 L 60.050781 73.425781 L 60.589844 73.503906 C 60.886719 73.542969 61.152344 73.632812 61.191406 73.691406 C 61.398438 74.015625 61.425781 80.929688 61.21875 81.621094 C 61.179688 81.757812 61.042969 81.867188 60.847656 81.914062 C 60.570312 81.984375 60.539062 82.03125 60.511719 82.40625 L 60.480469 82.820312 L 64.417969 82.820312 C 66.582031 82.820312 68.460938 82.78125 68.585938 82.730469 C 68.804688 82.644531 68.832031 82.574219 68.902344 81.667969 C 69.039062 80.054688 69.03125 80.015625 68.765625 79.988281 C 68.222656 79.90625 68.09375 80.027344 67.96875 80.703125 C 67.898438 81.050781 67.78125 81.394531 67.691406 81.460938 C 67.582031 81.550781 67.023438 81.601562 65.753906 81.621094 L 63.964844 81.660156 L 63.90625 80.890625 C 63.867188 80.480469 63.835938 79.683594 63.835938 79.132812 L 63.835938 78.128906 L 64.335938 78.070312 C 64.976562 77.988281 66.355469 78.097656 66.539062 78.234375 C 66.621094 78.296875 66.726562 78.539062 66.765625 78.785156 L 66.847656 79.230469 L 67.722656 79.230469 L 67.75 77.527344 L 67.769531 75.835938 L 67.328125 75.835938 C 67.050781 75.835938 66.867188 75.886719 66.847656 75.953125 C 66.828125 76.023438 66.765625 76.257812 66.726562 76.476562 L 66.640625 76.867188 L 65.359375 76.929688 C 64.664062 76.957031 64.023438 76.96875 63.945312 76.9375 C 63.757812 76.867188 63.855469 73.886719 64.050781 73.75 C 64.191406 73.652344 67.09375 73.722656 67.457031 73.828125 C 67.644531 73.886719 67.671875 73.957031 67.671875 74.417969 C 67.671875 74.890625 67.703125 74.96875 67.917969 75.070312 C 68.09375 75.148438 68.234375 75.148438 68.398438 75.070312 C 68.617188 74.96875 68.636719 74.890625 68.703125 73.859375 C 68.753906 72.984375 68.746094 72.746094 68.636719 72.679688 C 68.566406 72.628906 66.589844 72.601562 64.25 72.609375 L 59.988281 72.628906 Z M 60.019531 73.03125 "/>
<path style=" stroke:none;fill-rule:nonzero;fill:rgb(0%,0%,0%);fill-opacity:1;" d="M 71.332031 73.023438 L 71.359375 73.417969 L 71.902344 73.523438 L 72.441406 73.621094 L 72.519531 74.164062 C 72.648438 75.011719 72.5625 81.355469 72.414062 81.601562 C 72.335938 81.746094 72.167969 81.835938 71.851562 81.875 L 71.410156 81.945312 L 71.410156 82.820312 L 76.425781 82.820312 L 76.425781 82.386719 C 76.425781 81.90625 76.335938 81.835938 75.738281 81.835938 C 75.078125 81.835938 75.097656 81.945312 75.097656 77.695312 C 75.097656 74.832031 75.128906 73.847656 75.214844 73.761719 C 75.421875 73.554688 76.703125 73.613281 77.222656 73.859375 C 78.234375 74.339844 78.414062 75.640625 77.578125 76.503906 C 77.152344 76.949219 76.828125 77.105469 76.050781 77.253906 C 75.699219 77.3125 75.394531 77.417969 75.375 77.46875 C 75.355469 77.527344 75.660156 78.039062 76.0625 78.601562 C 78.5 82.0625 78.886719 82.601562 79.011719 82.710938 C 79.113281 82.789062 79.613281 82.820312 80.664062 82.800781 L 82.179688 82.769531 L 82.210938 82.378906 C 82.238281 81.984375 82.238281 81.972656 81.796875 81.855469 C 81.277344 81.71875 81.136719 81.5625 79.554688 79.269531 L 78.421875 77.636719 L 78.875 77.410156 C 79.5625 77.074219 79.996094 76.691406 80.320312 76.113281 C 80.566406 75.660156 80.605469 75.480469 80.605469 74.84375 C 80.605469 74.203125 80.566406 74.046875 80.339844 73.703125 C 80.015625 73.210938 79.59375 72.933594 78.847656 72.746094 C 78.382812 72.628906 77.617188 72.601562 74.792969 72.609375 L 71.300781 72.628906 Z M 71.332031 73.023438 "/>
<path style=" stroke:none;fill-rule:nonzero;fill:rgb(0%,0%,0%);fill-opacity:1;" d="M 84.117188 73.003906 L 84.148438 73.425781 L 84.71875 73.515625 C 85.210938 73.582031 85.289062 73.632812 85.355469 73.859375 C 85.457031 74.222656 85.425781 80.921875 85.308594 81.394531 C 85.21875 81.765625 85.199219 81.785156 84.6875 81.886719 L 84.148438 81.984375 L 84.148438 82.769531 L 86.09375 82.800781 L 88.03125 82.820312 L 88.03125 81.953125 L 87.492188 81.886719 C 87.097656 81.835938 86.921875 81.765625 86.84375 81.628906 C 86.785156 81.5 86.722656 80.292969 86.695312 78.460938 L 86.644531 75.492188 L 87.253906 76.132812 C 87.589844 76.484375 89.074219 78.128906 90.5625 79.78125 C 92.722656 82.199219 93.316406 82.808594 93.5625 82.859375 C 94.0625 82.957031 94.800781 82.929688 94.878906 82.800781 C 94.917969 82.742188 94.9375 81.070312 94.929688 79.09375 C 94.90625 75.621094 94.96875 73.917969 95.113281 73.671875 C 95.152344 73.613281 95.429688 73.523438 95.714844 73.496094 L 96.246094 73.425781 L 96.277344 73.003906 L 96.304688 72.589844 L 94.308594 72.609375 L 92.3125 72.640625 L 92.3125 73.425781 L 92.824219 73.476562 C 93.109375 73.503906 93.394531 73.582031 93.460938 73.652344 C 93.628906 73.820312 93.71875 79.417969 93.550781 79.367188 C 93.433594 79.316406 89.703125 75.195312 88.386719 73.652344 L 87.492188 72.589844 L 84.089844 72.589844 Z M 84.117188 73.003906 "/>
<path style=" stroke:none;fill-rule:nonzero;fill:rgb(0%,0%,0%);fill-opacity:1;" d="M 77.085938 84.175781 C 76.613281 84.648438 76.230469 85.082031 76.230469 85.132812 C 76.230469 85.179688 76.613281 85.613281 77.085938 86.085938 L 77.949219 86.949219 L 78.804688 86.09375 C 79.289062 85.621094 79.671875 85.191406 79.671875 85.132812 C 79.671875 85.03125 78.078125 83.3125 77.988281 83.3125 C 77.96875 83.3125 77.558594 83.695312 77.085938 84.175781 Z M 77.085938 84.175781 "/>
<path style=" stroke:none;fill-rule:nonzero;fill:rgb(0%,0%,0%);fill-opacity:1;" d="M 60.480469 84.765625 C 47.675781 84.785156 46.542969 84.796875 46.484375 84.945312 C 46.445312 85.03125 46.445312 85.191406 46.476562 85.289062 C 46.535156 85.464844 46.976562 85.476562 60.648438 85.476562 L 74.753906 85.476562 L 74.753906 85.140625 C 74.753906 84.90625 74.703125 84.796875 74.585938 84.777344 C 74.488281 84.757812 68.144531 84.746094 60.480469 84.765625 Z M 60.480469 84.765625 "/>
<path style=" stroke:none;fill-rule:nonzero;fill:rgb(0%,0%,0%);fill-opacity:1;" d="M 81.1875 84.925781 C 81.15625 85.003906 81.148438 85.152344 81.167969 85.25 C 81.195312 85.417969 81.785156 85.425781 95.261719 85.457031 C 105.148438 85.464844 109.335938 85.445312 109.378906 85.367188 C 109.417969 85.316406 109.425781 85.160156 109.398438 85.023438 L 109.355469 84.785156 L 95.300781 84.785156 C 83.144531 84.785156 81.234375 84.804688 81.1875 84.925781 Z M 81.1875 84.925781 "/>
<path style=" stroke:none;fill-rule:nonzero;fill:rgb(0%,0%,0%);fill-opacity:1;" d="M 67.03125 88.691406 C 66.5625 88.9375 66.324219 89.195312 66.089844 89.734375 C 65.890625 90.175781 65.863281 90.414062 65.863281 91.476562 C 65.851562 92.539062 65.882812 92.773438 66.070312 93.167969 C 66.304688 93.679688 66.699219 94.101562 67.082031 94.25 C 67.503906 94.417969 68.449219 94.355469 68.824219 94.132812 C 69.226562 93.894531 69.246094 93.894531 69.246094 94.082031 C 69.246094 94.179688 69.355469 94.230469 69.589844 94.230469 L 69.933594 94.230469 L 69.933594 91.179688 L 67.769531 91.179688 L 67.769531 91.96875 L 69.050781 91.96875 L 69.050781 92.253906 C 69.050781 92.636719 68.890625 93.050781 68.636719 93.316406 C 68.46875 93.492188 68.3125 93.539062 67.957031 93.539062 C 67.5625 93.539062 67.457031 93.5 67.238281 93.246094 C 66.925781 92.863281 66.835938 92.4375 66.835938 91.328125 C 66.847656 89.871094 67.179688 89.3125 68.015625 89.3125 C 68.480469 89.3125 68.8125 89.578125 68.941406 90.058594 C 69.011719 90.316406 69.058594 90.34375 69.472656 90.375 C 69.90625 90.402344 69.933594 90.382812 69.933594 90.175781 C 69.933594 90.050781 69.816406 89.714844 69.679688 89.4375 C 69.492188 89.046875 69.335938 88.878906 69.011719 88.730469 C 68.5 88.476562 67.476562 88.457031 67.03125 88.691406 Z M 67.03125 88.691406 "/>
<path style=" stroke:none;fill-rule:nonzero;fill:rgb(0%,0%,0%);fill-opacity:1;" d="M 77.359375 88.742188 C 76.582031 89.195312 76.296875 89.921875 76.296875 91.425781 C 76.296875 92.832031 76.554688 93.5625 77.222656 94.0625 C 77.765625 94.457031 79.023438 94.457031 79.574219 94.042969 C 80.234375 93.570312 80.488281 92.832031 80.488281 91.425781 C 80.488281 90.011719 80.234375 89.292969 79.542969 88.78125 C 79.113281 88.457031 77.890625 88.4375 77.359375 88.742188 Z M 78.972656 89.46875 C 79.355469 89.734375 79.476562 90.195312 79.476562 91.335938 C 79.476562 92.539062 79.347656 93.078125 79.003906 93.355469 C 78.679688 93.601562 78.097656 93.601562 77.773438 93.34375 C 77.429688 93.070312 77.3125 92.597656 77.3125 91.425781 C 77.3125 90.253906 77.429688 89.785156 77.773438 89.507812 C 78.078125 89.273438 78.648438 89.253906 78.972656 89.46875 Z M 78.972656 89.46875 "/>
<path style=" stroke:none;fill-rule:nonzero;fill:rgb(0%,0%,0%);fill-opacity:1;" d="M 71.332031 91.445312 L 71.359375 94.277344 L 71.597656 94.308594 C 71.714844 94.328125 71.929688 94.316406 72.058594 94.289062 C 72.296875 94.230469 72.296875 94.210938 72.296875 93.050781 L 72.296875 91.867188 L 72.835938 91.867188 C 73.5625 91.867188 73.949219 92.066406 74.007812 92.488281 C 74.035156 92.65625 74.09375 93.109375 74.152344 93.480469 C 74.203125 93.847656 74.28125 94.179688 74.3125 94.210938 C 74.378906 94.277344 75.226562 94.289062 75.296875 94.210938 C 75.324219 94.179688 75.285156 94.011719 75.207031 93.828125 C 75.128906 93.640625 75.03125 93.167969 74.988281 92.765625 C 74.929688 92.164062 74.871094 91.988281 74.636719 91.710938 C 74.351562 91.386719 74.351562 91.386719 74.558594 91.277344 C 75.039062 91.023438 75.207031 89.910156 74.851562 89.332031 C 74.480469 88.722656 74.183594 88.621094 72.660156 88.621094 L 71.3125 88.621094 Z M 73.839844 89.558594 C 74.09375 89.734375 74.183594 90.058594 74.085938 90.441406 C 73.976562 90.835938 73.484375 91.082031 72.816406 91.082031 L 72.296875 91.082031 L 72.296875 89.410156 L 72.964844 89.410156 C 73.386719 89.410156 73.703125 89.460938 73.839844 89.558594 Z M 73.839844 89.558594 "/>
<path style=" stroke:none;fill-rule:nonzero;fill:rgb(0%,0%,0%);fill-opacity:1;" d="M 81.738281 90.804688 C 81.738281 93.214844 81.816406 93.570312 82.367188 94.011719 C 82.75 94.308594 83.539062 94.457031 84.175781 94.328125 C 84.777344 94.21875 84.953125 94.132812 85.25 93.816406 C 85.601562 93.433594 85.671875 92.910156 85.671875 90.707031 L 85.671875 88.621094 L 84.699219 88.621094 L 84.667969 90.828125 C 84.640625 93.011719 84.640625 93.039062 84.402344 93.285156 C 84.207031 93.492188 84.070312 93.539062 83.714844 93.539062 C 82.789062 93.53125 82.722656 93.34375 82.722656 90.746094 L 82.722656 88.621094 L 81.738281 88.621094 Z M 81.738281 90.804688 "/>
<path style=" stroke:none;fill-rule:nonzero;fill:rgb(0%,0%,0%);fill-opacity:1;" d="M 87.050781 91.425781 L 87.050781 94.230469 L 87.285156 94.289062 C 87.414062 94.316406 87.628906 94.328125 87.746094 94.308594 C 87.972656 94.277344 87.984375 94.25 88.011719 93.136719 L 88.042969 91.988281 L 88.898438 91.949219 C 89.429688 91.917969 89.871094 91.839844 90.070312 91.742188 C 90.539062 91.496094 90.816406 90.964844 90.828125 90.304688 C 90.828125 89.585938 90.589844 89.113281 90.109375 88.839844 C 89.773438 88.644531 89.578125 88.621094 88.386719 88.621094 L 87.050781 88.621094 Z M 89.605469 89.585938 C 89.734375 89.683594 89.832031 89.910156 89.871094 90.15625 C 89.910156 90.480469 89.882812 90.601562 89.683594 90.835938 C 89.460938 91.09375 89.378906 91.113281 88.761719 91.121094 L 88.082031 91.132812 L 88.050781 90.265625 L 88.023438 89.410156 L 88.710938 89.410156 C 89.214844 89.410156 89.4375 89.460938 89.605469 89.585938 Z M 89.605469 89.585938 "/>
</g>
</svg>
